<svg width="89" height="82" viewBox="0 0 89 82" fill="none" xmlns="http://www.w3.org/2000/svg">
<ellipse cx="37.38" cy="32.0293" rx="37.38" ry="32.0293" transform="matrix(-1 0 0 1 88.1406 6.51099)" fill="#822109"/>
<path d="M8.63647 71.2182L33.3565 64.1487L18.3977 45.8206L8.63647 71.2182Z" fill="#822109"/>
<path d="M51.9243 43.8506C51.3626 44.3065 50.7081 44.5125 49.9607 44.4685C49.2458 44.4264 48.633 44.1459 48.1223 43.6269C47.6441 43.1098 47.3882 42.4755 47.3547 41.7238L47.0833 27.186L47.2612 23.9694C47.3289 22.7999 47.8037 21.8336 48.6857 21.0706C49.5704 20.2751 50.5977 19.9118 51.7676 19.9806L52.4012 20.0179C53.5711 20.0867 54.5098 20.5657 55.2174 21.4549C55.9602 22.3135 56.2653 23.3256 56.1326 24.4913L55.7597 27.6964L53.0578 42.0593C52.8963 42.7995 52.5185 43.3966 51.9243 43.8506ZM52.6468 56.5569C51.594 57.4077 50.3202 57.7891 48.8254 57.7012C47.3306 57.6132 46.1347 57.0865 45.2378 56.121C44.3408 55.1555 43.9535 53.9593 44.076 52.5322C44.1984 51.1052 44.7874 49.9501 45.8429 49.0669C46.931 48.1856 48.2062 47.7879 49.6685 47.874C51.1308 47.96 52.3091 48.502 53.2033 49.4999C54.1299 50.4997 54.5321 51.7131 54.4096 53.1402C54.2872 54.5672 53.6996 55.7061 52.6468 56.5569Z" fill="white"/>
</svg>
