<svg width="248" height="81" viewBox="0 0 248 81" fill="none" xmlns="http://www.w3.org/2000/svg">
<path d="M62.207 71.2539C61.4258 71.2539 60.7292 71.1432 60.1172 70.9219C59.5052 70.7005 58.9518 70.3555 58.457 69.8867C57.9753 69.4049 57.5977 68.7474 57.3242 67.9141C57.0638 67.0807 56.9336 66.0911 56.9336 64.9453V57.2695C56.9336 57.0091 57.0247 56.7878 57.207 56.6055C57.3893 56.4232 57.6107 56.332 57.8711 56.332C58.1315 56.332 58.3529 56.4232 58.5352 56.6055C58.7174 56.7878 58.8086 57.0091 58.8086 57.2695V65.0039C58.8086 68.0898 59.9414 69.6328 62.207 69.6328C64.5378 69.6328 65.7031 68.0898 65.7031 65.0039V57.2305C65.7031 56.9831 65.7878 56.7747 65.957 56.6055C66.1393 56.4232 66.3477 56.332 66.582 56.332C66.8294 56.332 67.0378 56.4232 67.207 56.6055C67.3893 56.7747 67.4805 56.9831 67.4805 57.2305V64.9453C67.4805 66.0911 67.3438 67.0807 67.0703 67.9141C66.8099 68.7474 66.4388 69.4049 65.957 69.8867C65.4753 70.3555 64.9219 70.7005 64.2969 70.9219C63.6849 71.1432 62.9883 71.2539 62.207 71.2539ZM82.793 70.7461C82.6237 70.9154 82.4154 71 82.168 71C81.9206 71 81.7057 70.9154 81.5234 70.7461C81.3411 70.5638 81.25 70.3424 81.25 70.082V60.8828C81.25 60.6745 81.3216 60.4987 81.4648 60.3555C81.6211 60.2122 81.8034 60.1406 82.0117 60.1406C82.2201 60.1406 82.4023 60.2122 82.5586 60.3555C82.7148 60.4987 82.806 60.6745 82.832 60.8828L82.9102 61.6836C82.9102 61.7096 82.9167 61.7227 82.9297 61.7227C82.9557 61.7227 82.9753 61.7161 82.9883 61.7031C84.1081 60.4792 85.2279 59.8672 86.3477 59.8672C87.806 59.8672 88.7826 60.4987 89.2773 61.7617C89.3034 61.8008 89.3359 61.8268 89.375 61.8398C89.4141 61.8398 89.4531 61.8268 89.4922 61.8008C90.7031 60.5117 91.849 59.8672 92.9297 59.8672C95.1302 59.8672 96.2305 61.2865 96.2305 64.125V70.082C96.2305 70.3424 96.1393 70.5638 95.957 70.7461C95.7878 70.9154 95.5729 71 95.3125 71C95.0651 71 94.8503 70.9154 94.668 70.7461C94.4987 70.5638 94.4141 70.3424 94.4141 70.082V64.3594C94.4141 63.3438 94.2513 62.6081 93.9258 62.1523C93.6003 61.6966 93.0924 61.4688 92.4023 61.4688C91.6081 61.4688 90.7357 61.9701 89.7852 62.9727C89.694 63.0638 89.6484 63.181 89.6484 63.3242V70.082C89.6484 70.3424 89.5573 70.5638 89.375 70.7461C89.2057 70.9154 88.9909 71 88.7305 71C88.4831 71 88.2682 70.9154 88.0859 70.7461C87.9167 70.5638 87.832 70.3424 87.832 70.082V64.3594C87.832 63.3438 87.6693 62.6081 87.3438 62.1523C87.0182 61.6966 86.5104 61.4688 85.8203 61.4688C85.013 61.4688 84.1406 61.9701 83.2031 62.9727C83.112 63.0638 83.0664 63.181 83.0664 63.3242V70.082C83.0664 70.3424 82.9753 70.5638 82.793 70.7461ZM111.309 70.7461C111.139 70.9154 110.931 71 110.684 71C110.436 71 110.221 70.9154 110.039 70.7461C109.857 70.5638 109.766 70.3424 109.766 70.082V61.0586C109.766 60.7982 109.857 60.5833 110.039 60.4141C110.221 60.2318 110.436 60.1406 110.684 60.1406C110.931 60.1406 111.139 60.2318 111.309 60.4141C111.491 60.5833 111.582 60.7982 111.582 61.0586V70.082C111.582 70.3424 111.491 70.5638 111.309 70.7461ZM111.582 57.5625C111.348 57.7839 111.048 57.8945 110.684 57.8945C110.332 57.8945 110.033 57.7839 109.785 57.5625C109.551 57.3411 109.434 57.0612 109.434 56.7227C109.434 56.3581 109.551 56.0716 109.785 55.8633C110.02 55.6419 110.319 55.5312 110.684 55.5312C111.061 55.5312 111.367 55.6419 111.602 55.8633C111.836 56.0716 111.953 56.3581 111.953 56.7227C111.953 57.0612 111.829 57.3411 111.582 57.5625ZM127.188 71.2539C125.898 71.2539 125.254 70.4466 125.254 68.832V55.9805C125.254 55.7331 125.345 55.5247 125.527 55.3555C125.71 55.1732 125.924 55.082 126.172 55.082C126.419 55.082 126.628 55.1732 126.797 55.3555C126.979 55.5247 127.07 55.7331 127.07 55.9805V68.9688C127.07 69.3333 127.168 69.5742 127.363 69.6914C127.402 69.7044 127.461 69.737 127.539 69.7891C127.63 69.8281 127.695 69.8607 127.734 69.8867C127.773 69.9128 127.819 69.9518 127.871 70.0039C127.936 70.043 127.982 70.0885 128.008 70.1406C128.047 70.1927 128.073 70.2513 128.086 70.3164L128.105 70.3945C128.118 70.4466 128.125 70.4987 128.125 70.5508C128.125 70.707 128.086 70.8438 128.008 70.9609C127.891 71.1302 127.734 71.2279 127.539 71.2539C127.435 71.2539 127.318 71.2539 127.188 71.2539ZM142.48 70.7461C142.311 70.9154 142.103 71 141.855 71C141.608 71 141.393 70.9154 141.211 70.7461C141.029 70.5638 140.938 70.3424 140.938 70.082V61.0586C140.938 60.7982 141.029 60.5833 141.211 60.4141C141.393 60.2318 141.608 60.1406 141.855 60.1406C142.103 60.1406 142.311 60.2318 142.48 60.4141C142.663 60.5833 142.754 60.7982 142.754 61.0586V70.082C142.754 70.3424 142.663 70.5638 142.48 70.7461ZM142.754 57.5625C142.52 57.7839 142.22 57.8945 141.855 57.8945C141.504 57.8945 141.204 57.7839 140.957 57.5625C140.723 57.3411 140.605 57.0612 140.605 56.7227C140.605 56.3581 140.723 56.0716 140.957 55.8633C141.191 55.6419 141.491 55.5312 141.855 55.5312C142.233 55.5312 142.539 55.6419 142.773 55.8633C143.008 56.0716 143.125 56.3581 143.125 56.7227C143.125 57.0612 143.001 57.3411 142.754 57.5625ZM160.801 71.2539C159.316 71.2539 158.079 70.7461 157.09 69.7305C156.1 68.7018 155.605 67.3151 155.605 65.5703C155.605 64.724 155.742 63.9362 156.016 63.207C156.289 62.4779 156.654 61.8724 157.109 61.3906C157.565 60.9089 158.086 60.5378 158.672 60.2773C159.271 60.0039 159.883 59.8672 160.508 59.8672C161.771 59.8672 162.773 60.2643 163.516 61.0586C164.271 61.8398 164.701 62.9206 164.805 64.3008C164.805 64.3529 164.805 64.3984 164.805 64.4375C164.805 64.8542 164.648 65.2122 164.336 65.5117C163.971 65.8372 163.542 66 163.047 66H157.617C157.565 66 157.52 66.0195 157.48 66.0586C157.454 66.0977 157.441 66.1432 157.441 66.1953C157.533 67.3021 157.904 68.181 158.555 68.832C159.206 69.4831 160.033 69.8086 161.035 69.8086C161.79 69.8086 162.5 69.6328 163.164 69.2812C163.32 69.2031 163.49 69.1901 163.672 69.2422C163.854 69.2812 163.991 69.3789 164.082 69.5352C164.173 69.7044 164.193 69.8867 164.141 70.082C164.102 70.2643 163.997 70.401 163.828 70.4922C162.865 71 161.855 71.2539 160.801 71.2539ZM157.422 64.5352C157.422 64.5742 157.441 64.6068 157.48 64.6328C157.507 64.6719 157.546 64.6914 157.598 64.6914H163.027C163.092 64.6914 163.138 64.6784 163.164 64.6523C163.203 64.6133 163.223 64.5677 163.223 64.5156C163.223 64.5156 163.223 64.5091 163.223 64.4961C163.197 63.4674 162.949 62.6797 162.48 62.1328C162.012 61.5859 161.361 61.3125 160.527 61.3125C159.759 61.3125 159.089 61.599 158.516 62.1719C157.786 62.875 157.422 63.6628 157.422 64.5352ZM179.375 70.8828C179.128 71.1302 178.815 71.2539 178.438 71.2539C178.073 71.2539 177.76 71.1302 177.5 70.8828C177.253 70.6224 177.129 70.2904 177.129 69.8867C177.129 69.4831 177.253 69.1445 177.5 68.8711C177.76 68.5977 178.073 68.4609 178.438 68.4609C178.802 68.4609 179.115 68.5977 179.375 68.8711C179.635 69.1445 179.766 69.4831 179.766 69.8867C179.766 70.2904 179.635 70.6224 179.375 70.8828ZM194.902 71C194.434 71 194.03 70.8372 193.691 70.5117C193.366 70.1732 193.203 69.7695 193.203 69.3008V57.2695C193.203 57.0091 193.294 56.7878 193.477 56.6055C193.659 56.4232 193.88 56.332 194.141 56.332C194.401 56.332 194.622 56.4232 194.805 56.6055C194.987 56.7878 195.078 57.0091 195.078 57.2695V69.2227C195.078 69.3529 195.143 69.418 195.273 69.418H200.684C200.905 69.418 201.087 69.4961 201.23 69.6523C201.387 69.8086 201.465 69.9974 201.465 70.2188C201.465 70.4271 201.387 70.6094 201.23 70.7656C201.087 70.9219 200.905 71 200.684 71H194.902ZM216.387 71.2539C215.449 71.2539 214.681 70.9805 214.082 70.4336C213.496 69.8867 213.203 69.138 213.203 68.1875C213.203 67.0286 213.717 66.1302 214.746 65.4922C215.788 64.8542 217.435 64.4049 219.688 64.1445C219.831 64.1315 219.896 64.0599 219.883 63.9297C219.831 62.224 219.089 61.3711 217.656 61.3711C216.81 61.3711 215.924 61.6315 215 62.1523C214.831 62.2565 214.648 62.2891 214.453 62.25C214.271 62.1979 214.128 62.0872 214.023 61.918C213.932 61.7357 213.906 61.5469 213.945 61.3516C213.997 61.1562 214.115 61.0065 214.297 60.9023C215.56 60.2122 216.777 59.8672 217.949 59.8672C219.225 59.8672 220.169 60.2643 220.781 61.0586C221.406 61.8398 221.719 62.9271 221.719 64.3203V70.2578C221.719 70.4661 221.641 70.6419 221.484 70.7852C221.341 70.9284 221.165 71 220.957 71C220.749 71 220.56 70.9284 220.391 70.7852C220.234 70.6419 220.143 70.4661 220.117 70.2578L220.059 69.7305C220.059 69.7044 220.046 69.6914 220.02 69.6914C220.007 69.6914 219.987 69.6979 219.961 69.7109C218.711 70.7396 217.52 71.2539 216.387 71.2539ZM216.914 69.8086C217.396 69.8086 217.858 69.7044 218.301 69.4961C218.743 69.2747 219.225 68.9362 219.746 68.4805C219.837 68.4023 219.883 68.2982 219.883 68.168V65.5117C219.883 65.4596 219.863 65.4206 219.824 65.3945C219.798 65.3555 219.766 65.3359 219.727 65.3359C219.714 65.3359 219.707 65.3359 219.707 65.3359C218.001 65.5573 216.79 65.8893 216.074 66.332C215.358 66.7747 215 67.3477 215 68.0508C215 68.6497 215.169 69.0924 215.508 69.3789C215.859 69.6654 216.328 69.8086 216.914 69.8086ZM239.941 71.2539C238.887 71.2539 237.858 70.8047 236.855 69.9062C236.842 69.8932 236.823 69.8867 236.797 69.8867C236.784 69.8867 236.777 69.8932 236.777 69.9062L236.719 70.2773C236.693 70.4857 236.602 70.6615 236.445 70.8047C236.289 70.9349 236.107 71 235.898 71C235.69 71 235.514 70.9284 235.371 70.7852C235.228 70.6419 235.156 70.4727 235.156 70.2773V55.9805C235.156 55.7331 235.247 55.5247 235.43 55.3555C235.612 55.1732 235.827 55.082 236.074 55.082C236.322 55.082 236.53 55.1732 236.699 55.3555C236.882 55.5247 236.973 55.7331 236.973 55.9805V59.4375L236.934 61.1953C236.934 61.2344 236.947 61.2669 236.973 61.293C237.012 61.306 237.044 61.2995 237.07 61.2734C238.19 60.3359 239.271 59.8672 240.312 59.8672C241.706 59.8672 242.78 60.362 243.535 61.3516C244.29 62.3411 244.668 63.6823 244.668 65.375C244.668 67.1719 244.206 68.6042 243.281 69.6719C242.37 70.7266 241.257 71.2539 239.941 71.2539ZM239.648 69.7305C240.56 69.7305 241.302 69.3464 241.875 68.5781C242.461 67.7969 242.754 66.7422 242.754 65.4141C242.754 62.7318 241.803 61.3906 239.902 61.3906C239.056 61.3906 238.132 61.8529 237.129 62.7773C237.025 62.8555 236.973 62.9596 236.973 63.0898V68.4023C236.973 68.5326 237.025 68.6432 237.129 68.7344C237.962 69.3984 238.802 69.7305 239.648 69.7305Z" fill="white"/>
<path d="M36 50.5H4.5C4.5 50.5 7 60 21 59.5C35 59 36 50.5 36 50.5Z" fill="white"/>
<mask id="path-3-outside-1_110_322" maskUnits="userSpaceOnUse" x="1.50098" y="25.749" width="37" height="35" fill="black">
<rect fill="white" x="1.50098" y="25.749" width="37" height="35"/>
<path fill-rule="evenodd" clip-rule="evenodd" d="M21.7504 27.4521L33.7379 38.9396C37.2379 42.2771 38.1379 46.7646 37.1004 50.7146H36.7109C35.3975 55.6379 31.1016 59.7497 25.0845 59.7497H14.9045C8.89884 59.7497 4.60324 55.6376 3.28995 50.7146H2.90042C1.87542 46.7646 2.76292 42.2896 6.26292 38.9396L18.2504 27.4521C19.2254 26.5146 20.7754 26.5146 21.7504 27.4521ZM4.32809 50.7146C5.61821 55.1415 9.51424 58.7497 14.9045 58.7497H25.0845C30.4866 58.7497 34.3827 55.1412 35.6728 50.7146H20.0004H4.32809ZM33.0478 39.6634C36.044 42.5205 36.9632 46.2794 36.3027 49.7146H20.0004H3.70029C3.04814 46.2789 3.95826 42.5298 6.95438 39.6621L6.95481 39.6617L18.9423 28.1742L18.9435 28.173C19.5314 27.6077 20.4694 27.6077 21.0573 28.173L21.0585 28.1742L33.046 39.6617L33.0478 39.6634Z"/>
</mask>
<path fill-rule="evenodd" clip-rule="evenodd" d="M21.7504 27.4521L33.7379 38.9396C37.2379 42.2771 38.1379 46.7646 37.1004 50.7146H36.7109C35.3975 55.6379 31.1016 59.7497 25.0845 59.7497H14.9045C8.89884 59.7497 4.60324 55.6376 3.28995 50.7146H2.90042C1.87542 46.7646 2.76292 42.2896 6.26292 38.9396L18.2504 27.4521C19.2254 26.5146 20.7754 26.5146 21.7504 27.4521ZM4.32809 50.7146C5.61821 55.1415 9.51424 58.7497 14.9045 58.7497H25.0845C30.4866 58.7497 34.3827 55.1412 35.6728 50.7146H20.0004H4.32809ZM33.0478 39.6634C36.044 42.5205 36.9632 46.2794 36.3027 49.7146H20.0004H3.70029C3.04814 46.2789 3.95826 42.5298 6.95438 39.6621L6.95481 39.6617L18.9423 28.1742L18.9435 28.173C19.5314 27.6077 20.4694 27.6077 21.0573 28.173L21.0585 28.1742L33.046 39.6617L33.0478 39.6634Z" fill="white"/>
<path d="M33.7379 38.9396L33.392 39.3007L33.3929 39.3015L33.7379 38.9396ZM21.7504 27.4521L21.4039 27.8126L21.4045 27.8132L21.7504 27.4521ZM37.1004 50.7146V51.2146H37.486L37.584 50.8417L37.1004 50.7146ZM36.7109 50.7146V50.2146H36.3268L36.2278 50.5858L36.7109 50.7146ZM3.28995 50.7146L3.77306 50.5858L3.67405 50.2146H3.28995V50.7146ZM2.90042 50.7146L2.41645 50.8402L2.51361 51.2146H2.90042V50.7146ZM6.26292 38.9396L6.60865 39.3009L6.60886 39.3006L6.26292 38.9396ZM18.2504 27.4521L18.5964 27.8132L18.597 27.8126L18.2504 27.4521ZM4.32809 50.7146V50.2146H3.66157L3.84806 50.8545L4.32809 50.7146ZM35.6728 50.7146L36.1528 50.8545L36.3393 50.2146H35.6728V50.7146ZM36.3027 49.7146V50.2146H36.7158L36.7937 49.809L36.3027 49.7146ZM33.0478 39.6634L32.7026 40.025L32.7028 40.0252L33.0478 39.6634ZM3.70029 49.7146L3.20906 49.8079L3.28626 50.2146H3.70029V49.7146ZM6.95438 39.6621L7.30011 40.0233L7.30028 40.0231L6.95438 39.6621ZM6.95481 39.6617L7.30071 40.0227L7.30075 40.0227L6.95481 39.6617ZM18.9423 28.1742L19.2883 28.5352L19.2889 28.5346L18.9423 28.1742ZM18.9435 28.173L19.2901 28.5334L19.2901 28.5334L18.9435 28.173ZM21.0573 28.173L20.7108 28.5334L20.7114 28.534L21.0573 28.173ZM21.0585 28.1742L21.4045 27.8132L21.4045 27.8131L21.0585 28.1742ZM33.046 39.6617L32.7001 40.0227L32.7008 40.0233L33.046 39.6617ZM34.0839 38.5786L22.0964 27.0911L21.4045 27.8132L33.392 39.3006L34.0839 38.5786ZM37.584 50.8417C38.6638 46.7307 37.7256 42.0513 34.083 38.5778L33.3929 39.3015C36.7502 42.503 37.612 46.7986 36.6168 50.5876L37.584 50.8417ZM36.7109 51.2146H37.1004V50.2146H36.7109V51.2146ZM36.2278 50.5858C34.965 55.3194 30.8462 59.2497 25.0845 59.2497V60.2497C31.357 60.2497 35.83 55.9564 37.194 50.8435L36.2278 50.5858ZM25.0845 59.2497H14.9045V60.2497H25.0845V59.2497ZM14.9045 59.2497C9.15453 59.2497 5.03584 55.3194 3.77306 50.5858L2.80685 50.8435C4.17064 55.9558 8.64315 60.2497 14.9045 60.2497V59.2497ZM2.90042 51.2146H3.28995V50.2146H2.90042V51.2146ZM5.91719 38.5784C2.27488 42.0647 1.35008 46.7308 2.41645 50.8402L3.38439 50.5891C2.40076 46.7985 3.25096 42.5146 6.60865 39.3009L5.91719 38.5784ZM17.9045 27.0911L5.91698 38.5786L6.60886 39.3006L18.5964 27.8132L17.9045 27.0911ZM22.097 27.0917C20.9284 25.9681 19.0724 25.9681 17.9039 27.0917L18.597 27.8126C19.3784 27.0612 20.6224 27.0612 21.4039 27.8126L22.097 27.0917ZM3.84806 50.8545C5.19229 55.4671 9.26439 59.2497 14.9045 59.2497V58.2497C9.76409 58.2497 6.04412 54.8159 4.80812 50.5748L3.84806 50.8545ZM14.9045 59.2497H25.0845V58.2497H14.9045V59.2497ZM25.0845 59.2497C30.7361 59.2497 34.8085 55.4671 36.1528 50.8545L35.1927 50.5748C33.9569 54.8153 30.2371 58.2497 25.0845 58.2497V59.2497ZM20.0004 51.2146H35.6728V50.2146H20.0004V51.2146ZM4.32809 51.2146H20.0004V50.2146H4.32809V51.2146ZM36.7937 49.809C37.4839 46.219 36.5209 42.2843 33.3929 39.3015L32.7028 40.0252C35.5672 42.7567 36.4424 46.3398 35.8117 49.6203L36.7937 49.809ZM20.0004 50.2146H36.3027V49.2146H20.0004V50.2146ZM3.70029 50.2146H20.0004V49.2146H3.70029V50.2146ZM6.60865 39.3009C3.48114 42.2943 2.52775 46.2185 3.20906 49.8079L4.19152 49.6214C3.56853 46.3392 4.43539 42.7652 7.30011 40.0233L6.60865 39.3009ZM6.60891 39.3006L6.60848 39.301L7.30028 40.0231L7.30071 40.0227L6.60891 39.3006ZM18.5964 27.8132L6.60886 39.3006L7.30075 40.0227L19.2883 28.5352L18.5964 27.8132ZM18.597 27.8126L18.5958 27.8137L19.2889 28.5346L19.2901 28.5334L18.597 27.8126ZM21.4039 27.8126C20.6224 27.0612 19.3784 27.0612 18.597 27.8126L19.2901 28.5334C19.6844 28.1542 20.3164 28.1542 20.7108 28.5334L21.4039 27.8126ZM21.4045 27.8131L21.4032 27.812L20.7114 28.534L20.7126 28.5352L21.4045 27.8131ZM33.392 39.3007L21.4045 27.8132L20.7126 28.5352L32.7001 40.0227L33.392 39.3007ZM33.393 39.3017L33.3913 39.3L32.7008 40.0233L32.7026 40.025L33.393 39.3017Z" fill="white" mask="url(#path-3-outside-1_110_322)"/>
<path d="M28 21L25 24" stroke="white" stroke-width="1.5" stroke-linecap="round"/>
<path d="M20 18L20 23" stroke="white" stroke-width="1.5" stroke-linecap="round"/>
<path d="M12 21L15 24" stroke="white" stroke-width="1.5" stroke-linecap="round"/>
<path d="M74.225 28.5C74.4333 28.5 74.5375 28.3958 74.5375 28.1875V26.0312C74.5375 25.8229 74.4333 25.7188 74.225 25.7188H62.3187C62.1104 25.7188 62.0062 25.8229 62.0062 26.0312V28.1875C62.0062 28.3958 62.1104 28.5 62.3187 28.5H74.225ZM62.0062 33.4688C62.0062 33.6771 62.1104 33.7812 62.3187 33.7812H74.225C74.4333 33.7812 74.5375 33.6771 74.5375 33.4688V31.3125C74.5375 31.1042 74.4333 31 74.225 31H62.3187C62.1104 31 62.0062 31.1042 62.0062 31.3125V33.4688ZM80.6937 17.5625C80.9854 17.8333 81.1312 18.1667 81.1312 18.5625C81.1312 18.9375 80.9854 19.2604 80.6937 19.5312C80.4229 19.8021 80.1 19.9375 79.725 19.9375H64.35C64.1417 19.9375 63.9854 20.0312 63.8812 20.2188C63.4854 21.0521 63.0271 21.9375 62.5062 22.875C62.4854 22.9375 62.4854 23 62.5062 23.0625C62.5479 23.1042 62.6 23.125 62.6625 23.125H74.725C75.475 23.125 76.1104 23.3958 76.6312 23.9375C77.1729 24.4583 77.4437 25.0938 77.4437 25.8438V39.0625C77.4437 39.8958 77.3292 40.5417 77.1 41C76.8917 41.4583 76.5167 41.8021 75.975 42.0312C75.2667 42.3229 73.9125 42.4792 71.9125 42.5C71.475 42.5 71.0896 42.3646 70.7562 42.0938C70.4229 41.8021 70.1833 41.4479 70.0375 41.0312C69.9125 40.6979 69.9542 40.3854 70.1625 40.0938C70.3708 39.8021 70.6417 39.6667 70.975 39.6875C71.6833 39.6875 72.2875 39.6875 72.7875 39.6875C73.225 39.6875 73.5687 39.6875 73.8187 39.6875C74.0896 39.6875 74.2771 39.6458 74.3812 39.5625C74.4854 39.4583 74.5375 39.2812 74.5375 39.0312V36.5938C74.5375 36.3854 74.4333 36.2812 74.225 36.2812H62.3187C62.1104 36.2812 62.0062 36.3854 62.0062 36.5938V41.0625C62.0062 41.4583 61.8604 41.8021 61.5687 42.0938C61.2979 42.3854 60.9542 42.5312 60.5375 42.5312C60.1417 42.5312 59.7979 42.3854 59.5062 42.0938C59.2146 41.8021 59.0687 41.4583 59.0687 41.0625V28.1875C59.0687 28.125 59.0375 28.0938 58.975 28.0938C58.9333 28.0729 58.8917 28.0833 58.85 28.125C57.7875 29.3333 56.6625 30.4167 55.475 31.375C55.2042 31.5833 54.9125 31.6875 54.6 31.6875C54.5167 31.6875 54.4437 31.6875 54.3812 31.6875C53.9646 31.625 53.6208 31.4271 53.35 31.0938C53.1208 30.8229 53.0062 30.5208 53.0062 30.1875C53.0062 29.7292 53.1833 29.3646 53.5375 29.0938C56.2667 26.9271 58.6208 23.9688 60.6 20.2188C60.6208 20.1562 60.6104 20.0938 60.5687 20.0312C60.5479 19.9688 60.4958 19.9375 60.4125 19.9375H54.5687C54.1937 19.9375 53.8708 19.8021 53.6 19.5312C53.3292 19.2604 53.1937 18.9375 53.1937 18.5625C53.1937 18.1667 53.3292 17.8333 53.6 17.5625C53.8708 17.2917 54.1937 17.1562 54.5687 17.1562H61.6312C61.8396 17.1562 61.9854 17.0625 62.0687 16.875C62.3604 16.125 62.6208 15.3854 62.85 14.6562C62.975 14.2396 63.2354 13.9167 63.6312 13.6875C63.8812 13.5417 64.1521 13.4688 64.4437 13.4688C64.5687 13.4688 64.6937 13.4792 64.8187 13.5C65.2146 13.6042 65.5167 13.8333 65.725 14.1875C65.85 14.4167 65.9125 14.6458 65.9125 14.875C65.9125 15.0208 65.8917 15.1771 65.85 15.3438C65.6625 15.9271 65.4854 16.4271 65.3187 16.8438C65.2979 16.9271 65.3083 17 65.35 17.0625C65.3917 17.125 65.4542 17.1562 65.5375 17.1562H79.725C80.1 17.1562 80.4229 17.2917 80.6937 17.5625ZM108.841 15.5312C109.07 15.0938 109.414 14.7812 109.872 14.5938C110.102 14.5104 110.331 14.4688 110.56 14.4688C110.789 14.4688 111.018 14.5104 111.247 14.5938C111.664 14.7604 111.945 15.0625 112.091 15.5C112.154 15.6667 112.185 15.8333 112.185 16C112.185 16.2708 112.112 16.5208 111.966 16.75C110.716 18.8333 109.581 20.5625 108.56 21.9375C108.31 22.2708 107.977 22.4896 107.56 22.5938C107.414 22.6146 107.279 22.625 107.154 22.625C106.904 22.625 106.654 22.5729 106.404 22.4688C106.07 22.3229 105.862 22.0729 105.779 21.7188C105.737 21.5938 105.716 21.4792 105.716 21.375C105.716 21.1458 105.789 20.9271 105.935 20.7188C106.456 19.9271 106.987 19.0417 107.529 18.0625C108.029 17.1875 108.466 16.3438 108.841 15.5312ZM94.1225 20.0312C94.2267 20.2396 94.2787 20.4479 94.2787 20.6562C94.2787 20.8646 94.2371 21.0625 94.1537 21.25C93.9871 21.6667 93.6954 21.9688 93.2787 22.1562C93.0912 22.2396 92.8933 22.2812 92.685 22.2812C92.4975 22.2812 92.31 22.2396 92.1225 22.1562C91.7267 21.9896 91.4454 21.7083 91.2787 21.3125C90.6746 19.875 89.7579 18.2812 88.5287 16.5312C88.3829 16.3229 88.31 16.0938 88.31 15.8438C88.31 15.7396 88.3308 15.6354 88.3725 15.5312C88.4558 15.1562 88.6746 14.8958 89.0287 14.75C89.2787 14.6458 89.5287 14.5938 89.7787 14.5938C89.9246 14.5938 90.0808 14.6146 90.2475 14.6562C90.6642 14.7604 91.0079 14.9792 91.2787 15.3125C92.4871 16.9792 93.435 18.5521 94.1225 20.0312ZM113.716 24.9375C114.008 25.2292 114.154 25.5833 114.154 26C114.154 26.3958 114.008 26.7396 113.716 27.0312C113.425 27.3229 113.081 27.4688 112.685 27.4688H104.122C104.06 27.4688 104.008 27.5 103.966 27.5625C103.945 27.625 103.956 27.6771 103.997 27.7188C105.372 29.6979 107.029 31.5833 108.966 33.375C110.487 34.7708 111.997 35.9375 113.497 36.875C113.852 37.1042 114.05 37.4271 114.091 37.8438C114.112 37.9062 114.122 37.9688 114.122 38.0312C114.122 38.3646 113.997 38.6667 113.747 38.9375C113.435 39.3125 113.05 39.5521 112.591 39.6562C112.487 39.6771 112.383 39.6875 112.279 39.6875C111.945 39.6875 111.633 39.5833 111.341 39.375C109.82 38.2708 108.31 36.9583 106.81 35.4375C104.893 33.5417 103.216 31.5208 101.779 29.375C101.737 29.3333 101.695 29.3229 101.654 29.3438C101.612 29.3646 101.591 29.3958 101.591 29.4375V40.25C101.591 40.6875 101.435 41.0521 101.122 41.3438C100.831 41.6562 100.466 41.8125 100.029 41.8125C99.5912 41.8125 99.2162 41.6562 98.9037 41.3438C98.6121 41.0521 98.4662 40.6875 98.4662 40.25V29.5312C98.4662 29.4896 98.4454 29.4688 98.4037 29.4688C98.3621 29.4479 98.3308 29.4479 98.31 29.4688C96.8725 31.6771 95.2162 33.7396 93.3412 35.6562C91.8412 37.1979 90.3204 38.5208 88.7787 39.625C88.4871 39.8333 88.1746 39.9375 87.8412 39.9375C87.7371 39.9375 87.6225 39.9271 87.4975 39.9062C87.06 39.8021 86.685 39.5729 86.3725 39.2188C86.1433 38.9688 86.0287 38.6771 86.0287 38.3438C86.0287 38.2812 86.0287 38.2083 86.0287 38.125C86.0912 37.7292 86.2892 37.4167 86.6225 37.1875C88.185 36.2083 89.7267 34.9896 91.2475 33.5312C93.185 31.6979 94.81 29.7604 96.1225 27.7188C96.1433 27.6771 96.1329 27.625 96.0912 27.5625C96.0704 27.5 96.0287 27.4688 95.9662 27.4688H87.435C87.0392 27.4688 86.6954 27.3229 86.4037 27.0312C86.1121 26.7396 85.9662 26.3958 85.9662 26C85.9662 25.5833 86.1121 25.2292 86.4037 24.9375C86.6954 24.6458 87.0392 24.5 87.435 24.5H98.1537C98.3621 24.5 98.4662 24.3958 98.4662 24.1875V14.0312C98.4662 13.5938 98.6121 13.2292 98.9037 12.9375C99.2162 12.625 99.5912 12.4688 100.029 12.4688C100.466 12.4688 100.831 12.625 101.122 12.9375C101.435 13.2292 101.591 13.5938 101.591 14.0312V24.1875C101.591 24.3958 101.695 24.5 101.904 24.5H112.685C113.081 24.5 113.425 24.6458 113.716 24.9375ZM124.114 22.25C123.905 22.25 123.801 22.3542 123.801 22.5625V26C123.801 26.2083 123.905 26.3125 124.114 26.3125H127.614C127.822 26.3125 127.926 26.2083 127.926 26V22.5625C127.926 22.3542 127.822 22.25 127.614 22.25H124.114ZM131.02 17.3125C130.812 17.3125 130.707 17.4167 130.707 17.625V19.4688C130.707 19.6771 130.812 19.7812 131.02 19.7812H134.645C134.853 19.7812 134.957 19.6771 134.957 19.4688V17.625C134.957 17.4167 134.853 17.3125 134.645 17.3125H131.02ZM142.114 22.5625C142.114 22.3542 142.01 22.25 141.801 22.25H138.082C137.874 22.25 137.77 22.3542 137.77 22.5625V26C137.77 26.2083 137.874 26.3125 138.082 26.3125H141.801C142.01 26.3125 142.114 26.2083 142.114 26V22.5625ZM130.707 26C130.707 26.2083 130.812 26.3125 131.02 26.3125H134.645C134.853 26.3125 134.957 26.2083 134.957 26V22.5625C134.957 22.3542 134.853 22.25 134.645 22.25H131.02C130.812 22.25 130.707 22.3542 130.707 22.5625V26ZM146.801 31.5C147.072 31.75 147.207 32.0625 147.207 32.4375C147.207 32.7917 147.072 33.0938 146.801 33.3438C146.551 33.5938 146.249 33.7188 145.895 33.7188H137.082C137.02 33.7188 136.978 33.75 136.957 33.8125C136.937 33.8542 136.947 33.8958 136.989 33.9375C138.197 35.0208 139.614 36.0312 141.239 36.9688C142.885 37.8854 144.572 38.6458 146.301 39.25C146.655 39.375 146.874 39.6146 146.957 39.9688C146.978 40.0729 146.989 40.1667 146.989 40.25C146.989 40.5 146.905 40.7188 146.739 40.9062C146.447 41.2812 146.082 41.5417 145.645 41.6875C145.457 41.75 145.26 41.7812 145.051 41.7812C144.822 41.7812 144.582 41.7292 144.332 41.625C140.478 40 137.26 37.8646 134.676 35.2188C134.635 35.1979 134.582 35.1979 134.52 35.2188C134.478 35.2396 134.457 35.2708 134.457 35.3125V41.0312C134.457 41.4479 134.312 41.8021 134.02 42.0938C133.728 42.3854 133.374 42.5312 132.957 42.5312C132.541 42.5312 132.187 42.3854 131.895 42.0938C131.603 41.8021 131.457 41.4479 131.457 41.0312V35.3438C131.457 35.3021 131.426 35.2708 131.364 35.25C131.322 35.2083 131.28 35.2083 131.239 35.25C129.947 36.5417 128.468 37.7396 126.801 38.8438C125.135 39.9479 123.426 40.8646 121.676 41.5938C121.426 41.6771 121.187 41.7188 120.957 41.7188C120.749 41.7188 120.551 41.6875 120.364 41.625C119.926 41.4792 119.562 41.2292 119.27 40.875C119.103 40.6667 119.02 40.4479 119.02 40.2188C119.02 40.1146 119.03 40.0104 119.051 39.9062C119.155 39.5521 119.374 39.3125 119.707 39.1875C123.395 37.875 126.489 36.125 128.989 33.9375C129.03 33.8958 129.041 33.8542 129.02 33.8125C128.999 33.75 128.957 33.7188 128.895 33.7188H120.239C119.885 33.7188 119.572 33.5938 119.301 33.3438C119.051 33.0938 118.926 32.7917 118.926 32.4375C118.926 32.0625 119.051 31.75 119.301 31.5C119.572 31.2292 119.885 31.0938 120.239 31.0938H131.145C131.353 31.0938 131.457 30.9896 131.457 30.7812V29.0938C131.457 28.8854 131.353 28.7812 131.145 28.7812H123.739C122.989 28.7812 122.343 28.5208 121.801 28C121.28 27.4583 121.02 26.8125 121.02 26.0625V22.5C121.02 21.75 121.28 21.1146 121.801 20.5938C122.343 20.0521 122.989 19.7812 123.739 19.7812H127.614C127.822 19.7812 127.926 19.6771 127.926 19.4688V17.625C127.926 17.4167 127.822 17.3125 127.614 17.3125H120.457C120.103 17.3125 119.801 17.1875 119.551 16.9375C119.301 16.6875 119.176 16.3854 119.176 16.0312C119.176 15.6562 119.301 15.3438 119.551 15.0938C119.801 14.8438 120.103 14.7188 120.457 14.7188H145.645C145.999 14.7188 146.301 14.8438 146.551 15.0938C146.801 15.3438 146.926 15.6562 146.926 16.0312C146.926 16.3854 146.801 16.6875 146.551 16.9375C146.301 17.1875 145.999 17.3125 145.645 17.3125H138.082C137.874 17.3125 137.77 17.4167 137.77 17.625V19.4688C137.77 19.6771 137.874 19.7812 138.082 19.7812H142.332C143.082 19.7812 143.718 20.0521 144.239 20.5938C144.78 21.1146 145.051 21.75 145.051 22.5V26.0625C145.051 26.8125 144.78 27.4583 144.239 28C143.718 28.5208 143.082 28.7812 142.332 28.7812H134.77C134.562 28.7812 134.457 28.8854 134.457 29.0938V30.7812C134.457 30.9896 134.562 31.0938 134.77 31.0938H145.895C146.249 31.0938 146.551 31.2292 146.801 31.5ZM155.636 17.6562C155.428 17.6562 155.324 17.7604 155.324 17.9688V19.2188C155.324 19.5938 155.188 19.9167 154.917 20.1875C154.667 20.4375 154.355 20.5625 153.98 20.5625C153.605 20.5625 153.282 20.4375 153.011 20.1875C152.761 19.9167 152.636 19.5938 152.636 19.2188V17.9375C152.636 17.2292 152.886 16.6146 153.386 16.0938C153.907 15.5729 154.532 15.3125 155.261 15.3125H164.261C164.407 15.3125 164.48 15.2396 164.48 15.0938V14.5938C164.48 14.1979 164.626 13.8542 164.917 13.5625C165.209 13.2708 165.553 13.125 165.949 13.125C166.365 13.125 166.72 13.2708 167.011 13.5625C167.303 13.8542 167.449 14.1979 167.449 14.5938V15.0938C167.449 15.2396 167.522 15.3125 167.667 15.3125H176.761C177.49 15.3125 178.105 15.5729 178.605 16.0938C179.126 16.6146 179.386 17.2292 179.386 17.9375V19.1562C179.386 19.5521 179.251 19.8854 178.98 20.1562C178.709 20.4271 178.376 20.5625 177.98 20.5625C177.584 20.5625 177.251 20.4271 176.98 20.1562C176.709 19.8854 176.574 19.5521 176.574 19.1562V17.9688C176.574 17.7604 176.47 17.6562 176.261 17.6562H155.636ZM164.605 20.875C164.626 20.7917 164.605 20.7188 164.542 20.6562C164.48 20.5938 164.407 20.5625 164.324 20.5625H160.042C159.834 20.5625 159.72 20.6667 159.699 20.875L159.605 21.5312C159.605 21.6146 159.626 21.6875 159.667 21.75C159.73 21.8125 159.803 21.8438 159.886 21.8438H164.23C164.438 21.8438 164.553 21.7396 164.574 21.5312L164.605 20.875ZM172.105 21.8438C172.313 21.8438 172.428 21.7396 172.449 21.5312L172.48 20.875C172.48 20.7917 172.449 20.7188 172.386 20.6562C172.345 20.5938 172.282 20.5625 172.199 20.5625H167.417C167.209 20.5625 167.095 20.6667 167.074 20.875L167.042 21.5312C167.022 21.6146 167.042 21.6875 167.105 21.75C167.167 21.8125 167.24 21.8438 167.324 21.8438H172.105ZM166.699 24.5625C166.699 24.6458 166.73 24.7188 166.792 24.7812C166.855 24.8438 166.928 24.875 167.011 24.875H171.855C172.063 24.875 172.167 24.7708 172.167 24.5625L172.23 23.875C172.23 23.7917 172.199 23.7188 172.136 23.6562C172.095 23.5938 172.032 23.5625 171.949 23.5625H167.136C166.928 23.5625 166.813 23.6667 166.792 23.875L166.699 24.5625ZM159.667 23.5625C159.459 23.5625 159.345 23.6667 159.324 23.875L159.199 24.5625C159.199 24.6458 159.22 24.7188 159.261 24.7812C159.324 24.8438 159.397 24.875 159.48 24.875H163.855C164.063 24.875 164.178 24.7708 164.199 24.5625C164.22 24.375 164.251 24.1458 164.292 23.875C164.313 23.7917 164.292 23.7188 164.23 23.6562C164.188 23.5938 164.126 23.5625 164.042 23.5625H159.667ZM158.761 26.4688C158.115 26.4688 157.574 26.2292 157.136 25.75C156.782 25.3333 156.605 24.875 156.605 24.375C156.605 24.2708 156.615 24.1667 156.636 24.0625C156.636 23.9792 156.615 23.9167 156.574 23.875C156.532 23.8125 156.47 23.7812 156.386 23.7812H153.042C152.751 23.7812 152.49 23.6771 152.261 23.4688C152.053 23.2604 151.949 23.0104 151.949 22.7188C151.949 22.4062 152.053 22.1458 152.261 21.9375C152.49 21.7292 152.751 21.625 153.042 21.625H156.667C156.855 21.625 156.959 21.5312 156.98 21.3438C157.084 20.6562 157.397 20.0833 157.917 19.625C158.438 19.1667 159.042 18.9375 159.73 18.9375H173.011C173.657 18.9375 174.199 19.1771 174.636 19.6562C175.011 20.0729 175.199 20.5625 175.199 21.125C175.199 21.2083 175.199 21.2812 175.199 21.3438C175.178 21.5312 175.261 21.625 175.449 21.625H178.98C179.272 21.625 179.522 21.7292 179.73 21.9375C179.959 22.1458 180.074 22.4062 180.074 22.7188C180.074 23.0104 179.959 23.2604 179.73 23.4688C179.522 23.6771 179.272 23.7812 178.98 23.7812H175.261C175.074 23.7812 174.97 23.875 174.949 24.0625C174.886 24.7292 174.595 25.3021 174.074 25.7812C173.574 26.2396 172.98 26.4688 172.292 26.4688H158.761ZM158.917 35C158.709 35 158.605 35.1042 158.605 35.3125V35.9375C158.605 36.1458 158.709 36.25 158.917 36.25H173.136C173.345 36.25 173.449 36.1458 173.449 35.9375V35.3125C173.449 35.1042 173.345 35 173.136 35H158.917ZM158.917 32.1562C158.709 32.1562 158.605 32.2604 158.605 32.4688V33.0625C158.605 33.2708 158.709 33.375 158.917 33.375H173.136C173.345 33.375 173.449 33.2708 173.449 33.0625V32.4688C173.449 32.2604 173.345 32.1562 173.136 32.1562H158.917ZM158.917 29.3438C158.709 29.3438 158.605 29.4479 158.605 29.6562V30.2188C158.605 30.4271 158.709 30.5312 158.917 30.5312H173.136C173.345 30.5312 173.449 30.4271 173.449 30.2188V29.6562C173.449 29.4479 173.345 29.3438 173.136 29.3438H158.917ZM176.449 35.2188C176.449 35.9896 176.178 36.6354 175.636 37.1562C175.115 37.6771 174.48 37.9375 173.73 37.9375H171.042C171.001 37.9375 170.98 37.9583 170.98 38C170.98 38.0208 170.99 38.0312 171.011 38.0312C173.845 38.8229 176.397 39.5938 178.667 40.3438C179.001 40.4479 179.167 40.6875 179.167 41.0625C179.167 41.3333 179.053 41.5417 178.824 41.6875C178.303 42.0208 177.761 42.1875 177.199 42.1875C176.865 42.1875 176.511 42.125 176.136 42C174.074 41.25 171.876 40.5208 169.542 39.8125C169.147 39.7083 168.907 39.4583 168.824 39.0625C168.824 38.9792 168.824 38.8958 168.824 38.8125C168.824 38.5417 168.938 38.3021 169.167 38.0938C169.188 38.0729 169.188 38.0417 169.167 38C169.167 37.9583 169.157 37.9375 169.136 37.9375H162.542C162.501 37.9375 162.47 37.9583 162.449 38C162.449 38.0417 162.459 38.0625 162.48 38.0625C162.855 38.3125 163.042 38.6458 163.042 39.0625C163.042 39.5417 162.824 39.875 162.386 40.0625C160.178 41.0208 157.636 41.7812 154.761 42.3438C154.595 42.3646 154.438 42.375 154.292 42.375C153.647 42.375 153.074 42.0938 152.574 41.5312C152.449 41.3854 152.386 41.2292 152.386 41.0625C152.386 41 152.397 40.9271 152.417 40.8438C152.501 40.5729 152.678 40.4167 152.949 40.375C156.282 39.7917 158.917 39.0312 160.855 38.0938C160.897 38.0729 160.907 38.0417 160.886 38C160.886 37.9583 160.865 37.9375 160.824 37.9375H158.48C157.73 37.9375 157.084 37.6771 156.542 37.1562C156.022 36.6354 155.761 35.9896 155.761 35.2188V30.375C155.761 29.625 156.022 28.9896 156.542 28.4688C157.084 27.9271 157.73 27.6562 158.48 27.6562H173.73C174.48 27.6562 175.115 27.9271 175.636 28.4688C176.178 28.9896 176.449 29.625 176.449 30.375V35.2188ZM201.221 20.5C201.18 20.5208 201.169 20.5625 201.19 20.625C201.211 20.6875 201.253 20.7188 201.315 20.7188H208.596C208.659 20.7188 208.7 20.6875 208.721 20.625C208.742 20.5625 208.732 20.5208 208.69 20.5C207.19 19.0417 205.971 17.5833 205.034 16.125C204.992 16.0833 204.93 16.0625 204.846 16.0625C204.784 16.0625 204.732 16.0938 204.69 16.1562C203.857 17.5938 202.7 19.0417 201.221 20.5ZM202.534 22.9688C202.034 22.9688 201.607 22.7917 201.253 22.4375C200.898 22.0833 200.721 21.6562 200.721 21.1562C200.721 21.1354 200.7 21.1146 200.659 21.0938C200.638 21.0729 200.607 21.0729 200.565 21.0938C199.919 21.6979 199.232 22.2604 198.503 22.7812C198.294 22.9271 198.075 23 197.846 23C197.742 23 197.628 22.9792 197.503 22.9375C197.148 22.8333 196.878 22.6146 196.69 22.2812C196.544 22.0521 196.471 21.8125 196.471 21.5625C196.471 21.4375 196.492 21.3229 196.534 21.2188C196.596 20.8438 196.784 20.5521 197.096 20.3438C198.2 19.5938 199.242 18.6979 200.221 17.6562C201.221 16.5938 202.055 15.5104 202.721 14.4062C203.221 13.6146 203.898 13.2188 204.753 13.2188C205.628 13.2188 206.325 13.5938 206.846 14.3438C208.555 16.7396 210.523 18.6562 212.753 20.0938C213.086 20.3021 213.305 20.6042 213.409 21C213.43 21.125 213.44 21.2396 213.44 21.3438C213.44 21.6146 213.378 21.8646 213.253 22.0938C213.023 22.4479 212.721 22.6771 212.346 22.7812C212.221 22.8229 212.096 22.8438 211.971 22.8438C211.721 22.8438 211.482 22.7604 211.253 22.5938C210.669 22.1771 210.065 21.6979 209.44 21.1562C209.398 21.1354 209.357 21.1354 209.315 21.1562C209.294 21.1562 209.284 21.1771 209.284 21.2188C209.284 21.6979 209.107 22.1146 208.753 22.4688C208.419 22.8021 208.013 22.9688 207.534 22.9688H202.534ZM208.096 26.6562C207.888 26.6562 207.784 26.7604 207.784 26.9688V29.9375C207.784 30.1458 207.888 30.25 208.096 30.25H210.128C210.336 30.25 210.44 30.1458 210.44 29.9375V26.9688C210.44 26.7604 210.336 26.6562 210.128 26.6562H208.096ZM208.471 32.2188C207.721 32.2188 207.075 31.9583 206.534 31.4375C206.013 30.8958 205.753 30.25 205.753 29.5V27.4375C205.753 26.6667 206.013 26.0208 206.534 25.5C207.075 24.9792 207.721 24.7188 208.471 24.7188H209.815C210.565 24.7188 211.2 24.9792 211.721 25.5C212.263 26.0208 212.534 26.6667 212.534 27.4375V29.5C212.534 30.25 212.263 30.8958 211.721 31.4375C211.2 31.9583 210.565 32.2188 209.815 32.2188H208.471ZM200.096 26.6562C199.888 26.6562 199.784 26.7604 199.784 26.9688V29.9375C199.784 30.1458 199.888 30.25 200.096 30.25H201.909C202.117 30.25 202.221 30.1458 202.221 29.9375V26.9688C202.221 26.7604 202.117 26.6562 201.909 26.6562H200.096ZM200.503 32.2188C199.753 32.2188 199.107 31.9583 198.565 31.4375C198.044 30.8958 197.784 30.25 197.784 29.5V27.4375C197.784 26.6667 198.044 26.0208 198.565 25.5C199.107 24.9792 199.753 24.7188 200.503 24.7188H201.659C202.409 24.7188 203.044 24.9792 203.565 25.5C204.107 26.0208 204.378 26.6667 204.378 27.4375V29.5C204.378 30.25 204.107 30.8958 203.565 31.4375C203.044 31.9583 202.409 32.2188 201.659 32.2188H200.503ZM185.94 40C185.836 40.2083 185.659 40.3438 185.409 40.4062C185.159 40.4896 184.93 40.4688 184.721 40.3438C184.513 40.2188 184.367 40.0417 184.284 39.8125C184.263 39.7083 184.253 39.6146 184.253 39.5312C184.253 39.3854 184.284 39.25 184.346 39.125C184.888 37.8542 185.232 36.0312 185.378 33.6562C185.378 33.4271 185.461 33.25 185.628 33.125C185.815 32.9792 186.023 32.9271 186.253 32.9688C186.503 33.0104 186.7 33.1354 186.846 33.3438C186.992 33.5312 187.065 33.7396 187.065 33.9688C186.898 36.6771 186.523 38.6875 185.94 40ZM187.659 34.125C187.617 33.9375 187.659 33.7708 187.784 33.625C187.909 33.4792 188.065 33.3958 188.253 33.375C188.44 33.3333 188.607 33.375 188.753 33.5C188.919 33.625 189.023 33.7812 189.065 33.9688C189.253 35.4896 189.346 36.9375 189.346 38.3125C189.346 38.5208 189.273 38.7083 189.128 38.875C188.982 39.0208 188.805 39.1042 188.596 39.125C188.409 39.1667 188.242 39.125 188.096 39C187.95 38.8542 187.888 38.6875 187.909 38.5C187.909 38.3333 187.909 38.1667 187.909 38C187.909 36.7708 187.825 35.4792 187.659 34.125ZM188.284 26.2812C188.075 26.2812 187.971 26.3854 187.971 26.5938V28.5C187.971 28.7083 188.075 28.8125 188.284 28.8125H190.128C190.336 28.8125 190.44 28.7083 190.44 28.5V26.5938C190.44 26.3854 190.336 26.2812 190.128 26.2812H188.284ZM190.44 17.0938C190.44 16.8854 190.336 16.7812 190.128 16.7812H188.284C188.075 16.7812 187.971 16.8854 187.971 17.0938V18.9062C187.971 19.1146 188.075 19.2188 188.284 19.2188H190.128C190.336 19.2188 190.44 19.1146 190.44 18.9062V17.0938ZM190.128 24C190.336 24 190.44 23.8958 190.44 23.6875V21.8125C190.44 21.6042 190.336 21.5 190.128 21.5H188.284C188.075 21.5 187.971 21.6042 187.971 21.8125V23.6875C187.971 23.8958 188.075 24 188.284 24H190.128ZM192.721 28.5C192.721 28.7083 192.825 28.8125 193.034 28.8125H193.971C194.721 28.8125 195.357 29.0729 195.878 29.5938C196.378 30.1146 196.628 30.7188 196.628 31.4062C196.628 33.9062 196.482 36.3542 196.19 38.75C196.023 40.1875 195.763 41.125 195.409 41.5625C195.034 42.0833 194.471 42.3958 193.721 42.5C193.367 42.5625 192.857 42.5938 192.19 42.5938C191.857 42.5938 191.565 42.4792 191.315 42.25C191.065 42.0208 190.898 41.7396 190.815 41.4062C190.753 41.1354 190.794 40.8854 190.94 40.6562C191.107 40.4479 191.315 40.3542 191.565 40.375C191.857 40.375 192.19 40.375 192.565 40.375C192.961 40.375 193.242 40.2604 193.409 40.0312C193.659 39.6771 193.857 38.5521 194.003 36.6562C194.003 36.6354 193.992 36.6146 193.971 36.5938C193.95 36.5729 193.93 36.5729 193.909 36.5938C193.7 36.6771 193.482 36.6667 193.253 36.5625C193.044 36.4583 192.909 36.2917 192.846 36.0625C192.575 35.2292 192.2 34.3229 191.721 33.3438C191.659 33.1979 191.659 33.0521 191.721 32.9062C191.784 32.7396 191.898 32.625 192.065 32.5625C192.169 32.5417 192.263 32.5312 192.346 32.5312C192.617 32.5312 192.825 32.6667 192.971 32.9375C193.346 33.6458 193.68 34.3854 193.971 35.1562C193.971 35.1979 193.992 35.2188 194.034 35.2188C194.075 35.1979 194.096 35.1771 194.096 35.1562C194.159 34.1354 194.211 32.8958 194.253 31.4375C194.253 31.3542 194.221 31.2812 194.159 31.2188C194.117 31.1562 194.044 31.125 193.94 31.125H188.315C187.565 31.125 186.919 30.8646 186.378 30.3438C185.857 29.8021 185.596 29.1562 185.596 28.4062V17.0938C185.596 16.3438 185.857 15.7083 186.378 15.1875C186.919 14.6458 187.565 14.375 188.315 14.375H195.221C195.555 14.375 195.836 14.4896 196.065 14.7188C196.294 14.9479 196.409 15.2292 196.409 15.5625C196.409 15.8958 196.294 16.1875 196.065 16.4375C195.836 16.6667 195.555 16.7812 195.221 16.7812H193.034C192.825 16.7812 192.721 16.8854 192.721 17.0938V18.9062C192.721 19.1146 192.825 19.2188 193.034 19.2188H194.69C195.003 19.2188 195.273 19.3333 195.503 19.5625C195.732 19.7917 195.846 20.0625 195.846 20.375C195.846 20.6875 195.732 20.9583 195.503 21.1875C195.273 21.3958 195.003 21.5 194.69 21.5H193.034C192.825 21.5 192.721 21.6042 192.721 21.8125V23.6875C192.721 23.8958 192.825 24 193.034 24H194.753C195.065 24 195.336 24.1146 195.565 24.3438C195.794 24.5521 195.909 24.8125 195.909 25.125C195.909 25.4375 195.794 25.7083 195.565 25.9375C195.336 26.1667 195.065 26.2812 194.753 26.2812H193.034C192.825 26.2812 192.721 26.3854 192.721 26.5938V28.5ZM191.909 37.3125C191.93 37.5208 191.878 37.7083 191.753 37.875C191.628 38.0208 191.471 38.1146 191.284 38.1562C191.096 38.1979 190.93 38.1667 190.784 38.0625C190.638 37.9375 190.555 37.7812 190.534 37.5938C190.367 36.3021 190.096 35.0312 189.721 33.7812C189.7 33.7188 189.69 33.6562 189.69 33.5938C189.69 33.4896 189.711 33.3958 189.753 33.3125C189.857 33.1458 189.992 33.0521 190.159 33.0312C190.346 32.9896 190.523 33.0208 190.69 33.125C190.857 33.2083 190.971 33.3438 191.034 33.5312C191.45 34.7812 191.742 36.0417 191.909 37.3125ZM207.753 34.1562C207.815 33.8021 207.982 33.5104 208.253 33.2812C208.503 33.0729 208.784 32.9688 209.096 32.9688C209.138 32.9688 209.169 32.9688 209.19 32.9688C209.544 32.9896 209.825 33.1354 210.034 33.4062C210.242 33.6771 210.315 33.9792 210.253 34.3125C210.148 34.9583 210.013 35.5729 209.846 36.1562C209.784 36.3438 209.825 36.5104 209.971 36.6562C211.138 37.8229 212.18 38.9583 213.096 40.0625C213.263 40.2708 213.346 40.5104 213.346 40.7812C213.346 40.8438 213.336 40.9062 213.315 40.9688C213.273 41.2812 213.117 41.5417 212.846 41.75C212.596 41.9583 212.305 42.0312 211.971 41.9688C211.659 41.9271 211.398 41.7812 211.19 41.5312C210.607 40.7812 209.898 39.9271 209.065 38.9688C209.023 38.9062 208.961 38.8854 208.878 38.9062C208.815 38.9062 208.763 38.9375 208.721 39C208.325 39.75 207.878 40.4167 207.378 41C206.961 41.4375 206.471 41.6562 205.909 41.6562C205.867 41.6562 205.825 41.6458 205.784 41.625C205.159 41.6042 204.586 41.375 204.065 40.9375C204.023 40.8958 203.971 40.8542 203.909 40.8125C203.888 40.7917 203.857 40.7917 203.815 40.8125C203.711 40.9375 203.575 40.9896 203.409 40.9688C203.242 40.9688 203.107 40.9062 203.003 40.7812C202.503 40.0938 201.94 39.4167 201.315 38.75C201.253 38.7083 201.18 38.6979 201.096 38.7188C201.034 38.7188 200.982 38.75 200.94 38.8125C200.398 39.9375 199.68 40.9271 198.784 41.7812C198.555 42.0104 198.284 42.125 197.971 42.125C197.93 42.125 197.898 42.125 197.878 42.125C197.523 42.0833 197.221 41.9375 196.971 41.6875C196.742 41.4792 196.628 41.2188 196.628 40.9062C196.628 40.5729 196.753 40.2917 197.003 40.0625C198.461 38.7083 199.409 36.75 199.846 34.1875C199.909 33.8333 200.075 33.5417 200.346 33.3125C200.596 33.1042 200.878 33 201.19 33C201.232 33 201.263 33 201.284 33C201.638 33.0208 201.919 33.1667 202.128 33.4375C202.357 33.7083 202.44 34.0104 202.378 34.3438C202.273 34.8854 202.148 35.4271 202.003 35.9688C201.94 36.1562 201.992 36.3229 202.159 36.4688C202.909 37.1562 203.565 37.8125 204.128 38.4375C204.378 38.7292 204.503 39.0625 204.503 39.4375C204.503 39.875 204.346 40.2604 204.034 40.5938C204.055 40.6146 204.065 40.6146 204.065 40.5938C205.961 39.2396 207.19 37.0938 207.753 34.1562ZM221.4 18.125C221.192 18.125 221.087 18.2292 221.087 18.4375V20.1562C221.087 20.5521 220.942 20.8958 220.65 21.1875C220.379 21.4583 220.035 21.5938 219.619 21.5938C219.223 21.5938 218.879 21.4583 218.587 21.1875C218.317 20.8958 218.181 20.5521 218.181 20.1562V18.1562C218.181 17.4062 218.442 16.7708 218.962 16.25C219.504 15.7083 220.15 15.4375 220.9 15.4375H230.056C230.223 15.4375 230.306 15.3542 230.306 15.1875V14.6875C230.306 14.25 230.452 13.8854 230.744 13.5938C231.035 13.3021 231.39 13.1562 231.806 13.1562C232.244 13.1562 232.608 13.3021 232.9 13.5938C233.192 13.8854 233.337 14.25 233.337 14.6875V15.1875C233.337 15.3542 233.421 15.4375 233.587 15.4375H242.994C243.744 15.4375 244.379 15.7083 244.9 16.25C245.442 16.7708 245.712 17.4062 245.712 18.1562V20.0938C245.712 20.5104 245.567 20.8646 245.275 21.1562C244.983 21.4479 244.629 21.5938 244.212 21.5938C243.796 21.5938 243.431 21.4479 243.119 21.1562C242.827 20.8646 242.681 20.5104 242.681 20.0938V18.4375C242.681 18.2292 242.577 18.125 242.369 18.125H221.4ZM233.337 38.6562C233.337 38.8646 233.442 38.9688 233.65 38.9688H244.681C245.056 38.9688 245.369 39.1042 245.619 39.375C245.89 39.625 246.025 39.9271 246.025 40.2812C246.025 40.6562 245.89 40.9688 245.619 41.2188C245.369 41.4896 245.056 41.625 244.681 41.625H219.244C218.869 41.625 218.556 41.4896 218.306 41.2188C218.056 40.9688 217.931 40.6562 217.931 40.2812C217.931 39.9271 218.056 39.625 218.306 39.375C218.556 39.1042 218.869 38.9688 219.244 38.9688H229.994C230.202 38.9688 230.306 38.8646 230.306 38.6562V35.9688C230.306 35.7604 230.202 35.6562 229.994 35.6562H222.056C221.702 35.6562 221.4 35.5312 221.15 35.2812C220.9 35.0104 220.775 34.6979 220.775 34.3438C220.775 33.9896 220.9 33.6875 221.15 33.4375C221.4 33.1875 221.702 33.0625 222.056 33.0625H229.994C230.202 33.0625 230.306 32.9583 230.306 32.75V30.1875C230.306 30.1042 230.275 30.0417 230.212 30C230.15 29.9375 230.077 29.9062 229.994 29.9062C226.515 29.9896 223.754 30.0625 221.712 30.125C221.692 30.125 221.671 30.125 221.65 30.125C221.296 30.125 220.983 30 220.712 29.75C220.421 29.4792 220.275 29.1458 220.275 28.75C220.275 28.4167 220.4 28.1146 220.65 27.8438C220.9 27.5938 221.212 27.4583 221.587 27.4375C222.171 27.4375 223.108 27.4271 224.4 27.4062C224.608 27.4062 224.765 27.3125 224.869 27.125C225.494 26.1042 226.098 24.9896 226.681 23.7812C226.702 23.6979 226.692 23.6354 226.65 23.5938C226.629 23.5312 226.577 23.5 226.494 23.5H222.806C222.452 23.5 222.15 23.375 221.9 23.125C221.65 22.875 221.525 22.5729 221.525 22.2188C221.525 21.8646 221.65 21.5625 221.9 21.3125C222.15 21.0625 222.452 20.9375 222.806 20.9375H241.181C241.535 20.9375 241.837 21.0625 242.087 21.3125C242.337 21.5625 242.462 21.8646 242.462 22.2188C242.462 22.5729 242.337 22.875 242.087 23.125C241.837 23.375 241.535 23.5 241.181 23.5H230.587C230.379 23.5 230.223 23.5833 230.119 23.75C229.244 25.1875 228.546 26.2917 228.025 27.0625C227.983 27.125 227.973 27.1875 227.994 27.25C228.035 27.2917 228.087 27.3125 228.15 27.3125C228.962 27.2917 230.442 27.2604 232.587 27.2188C234.733 27.1771 236.4 27.1458 237.587 27.125C237.65 27.1042 237.692 27.0729 237.712 27.0312C237.733 26.9896 237.723 26.9479 237.681 26.9062C237.202 26.5312 236.765 26.1875 236.369 25.875C236.119 25.6875 235.994 25.4375 235.994 25.125C235.994 24.8125 236.129 24.5625 236.4 24.375C236.712 24.1667 237.067 24.0625 237.462 24.0625C237.858 24.0625 238.212 24.1771 238.525 24.4062C240.587 25.8854 242.327 27.3229 243.744 28.7188C243.973 28.9479 244.087 29.2188 244.087 29.5312C244.087 29.9688 243.9 30.3125 243.525 30.5625C243.254 30.75 242.962 30.8438 242.65 30.8438C242.587 30.8438 242.515 30.8438 242.431 30.8438C242.035 30.7812 241.702 30.6042 241.431 30.3125C241.265 30.125 241.067 29.9271 240.837 29.7188C240.733 29.5938 240.587 29.5312 240.4 29.5312C239.671 29.5729 238.546 29.625 237.025 29.6875C235.525 29.7292 234.4 29.7604 233.65 29.7812C233.442 29.7812 233.337 29.8854 233.337 30.0938V32.75C233.337 32.9583 233.442 33.0625 233.65 33.0625H242.056C242.41 33.0625 242.712 33.1875 242.962 33.4375C243.233 33.6875 243.369 33.9896 243.369 34.3438C243.369 34.6979 243.233 35.0104 242.962 35.2812C242.712 35.5312 242.41 35.6562 242.056 35.6562H233.65C233.442 35.6562 233.337 35.7604 233.337 35.9688V38.6562Z" fill="white"/>
</svg>
