<svg width="248" height="79" viewBox="0 0 248 79" fill="none" xmlns="http://www.w3.org/2000/svg">
<path d="M62.207 69.2539C61.4258 69.2539 60.7292 69.1432 60.1172 68.9219C59.5052 68.7005 58.9518 68.3555 58.457 67.8867C57.9753 67.4049 57.5977 66.7474 57.3242 65.9141C57.0638 65.0807 56.9336 64.0911 56.9336 62.9453V55.2695C56.9336 55.0091 57.0247 54.7878 57.207 54.6055C57.3893 54.4232 57.6107 54.332 57.8711 54.332C58.1315 54.332 58.3529 54.4232 58.5352 54.6055C58.7174 54.7878 58.8086 55.0091 58.8086 55.2695V63.0039C58.8086 66.0898 59.9414 67.6328 62.207 67.6328C64.5378 67.6328 65.7031 66.0898 65.7031 63.0039V55.2305C65.7031 54.9831 65.7878 54.7747 65.957 54.6055C66.1393 54.4232 66.3477 54.332 66.582 54.332C66.8294 54.332 67.0378 54.4232 67.207 54.6055C67.3893 54.7747 67.4805 54.9831 67.4805 55.2305V62.9453C67.4805 64.0911 67.3438 65.0807 67.0703 65.9141C66.8099 66.7474 66.4388 67.4049 65.957 67.8867C65.4753 68.3555 64.9219 68.7005 64.2969 68.9219C63.6849 69.1432 62.9883 69.2539 62.207 69.2539ZM82.793 68.7461C82.6237 68.9154 82.4154 69 82.168 69C81.9206 69 81.7057 68.9154 81.5234 68.7461C81.3411 68.5638 81.25 68.3424 81.25 68.082V58.8828C81.25 58.6745 81.3216 58.4987 81.4648 58.3555C81.6211 58.2122 81.8034 58.1406 82.0117 58.1406C82.2201 58.1406 82.4023 58.2122 82.5586 58.3555C82.7148 58.4987 82.806 58.6745 82.832 58.8828L82.9102 59.6836C82.9102 59.7096 82.9167 59.7227 82.9297 59.7227C82.9557 59.7227 82.9753 59.7161 82.9883 59.7031C84.1081 58.4792 85.2279 57.8672 86.3477 57.8672C87.806 57.8672 88.7826 58.4987 89.2773 59.7617C89.3034 59.8008 89.3359 59.8268 89.375 59.8398C89.4141 59.8398 89.4531 59.8268 89.4922 59.8008C90.7031 58.5117 91.849 57.8672 92.9297 57.8672C95.1302 57.8672 96.2305 59.2865 96.2305 62.125V68.082C96.2305 68.3424 96.1393 68.5638 95.957 68.7461C95.7878 68.9154 95.5729 69 95.3125 69C95.0651 69 94.8503 68.9154 94.668 68.7461C94.4987 68.5638 94.4141 68.3424 94.4141 68.082V62.3594C94.4141 61.3438 94.2513 60.6081 93.9258 60.1523C93.6003 59.6966 93.0924 59.4688 92.4023 59.4688C91.6081 59.4688 90.7357 59.9701 89.7852 60.9727C89.694 61.0638 89.6484 61.181 89.6484 61.3242V68.082C89.6484 68.3424 89.5573 68.5638 89.375 68.7461C89.2057 68.9154 88.9909 69 88.7305 69C88.4831 69 88.2682 68.9154 88.0859 68.7461C87.9167 68.5638 87.832 68.3424 87.832 68.082V62.3594C87.832 61.3438 87.6693 60.6081 87.3438 60.1523C87.0182 59.6966 86.5104 59.4688 85.8203 59.4688C85.013 59.4688 84.1406 59.9701 83.2031 60.9727C83.112 61.0638 83.0664 61.181 83.0664 61.3242V68.082C83.0664 68.3424 82.9753 68.5638 82.793 68.7461ZM111.309 68.7461C111.139 68.9154 110.931 69 110.684 69C110.436 69 110.221 68.9154 110.039 68.7461C109.857 68.5638 109.766 68.3424 109.766 68.082V59.0586C109.766 58.7982 109.857 58.5833 110.039 58.4141C110.221 58.2318 110.436 58.1406 110.684 58.1406C110.931 58.1406 111.139 58.2318 111.309 58.4141C111.491 58.5833 111.582 58.7982 111.582 59.0586V68.082C111.582 68.3424 111.491 68.5638 111.309 68.7461ZM111.582 55.5625C111.348 55.7839 111.048 55.8945 110.684 55.8945C110.332 55.8945 110.033 55.7839 109.785 55.5625C109.551 55.3411 109.434 55.0612 109.434 54.7227C109.434 54.3581 109.551 54.0716 109.785 53.8633C110.02 53.6419 110.319 53.5312 110.684 53.5312C111.061 53.5312 111.367 53.6419 111.602 53.8633C111.836 54.0716 111.953 54.3581 111.953 54.7227C111.953 55.0612 111.829 55.3411 111.582 55.5625ZM127.188 69.2539C125.898 69.2539 125.254 68.4466 125.254 66.832V53.9805C125.254 53.7331 125.345 53.5247 125.527 53.3555C125.71 53.1732 125.924 53.082 126.172 53.082C126.419 53.082 126.628 53.1732 126.797 53.3555C126.979 53.5247 127.07 53.7331 127.07 53.9805V66.9688C127.07 67.3333 127.168 67.5742 127.363 67.6914C127.402 67.7044 127.461 67.737 127.539 67.7891C127.63 67.8281 127.695 67.8607 127.734 67.8867C127.773 67.9128 127.819 67.9518 127.871 68.0039C127.936 68.043 127.982 68.0885 128.008 68.1406C128.047 68.1927 128.073 68.2513 128.086 68.3164L128.105 68.3945C128.118 68.4466 128.125 68.4987 128.125 68.5508C128.125 68.707 128.086 68.8438 128.008 68.9609C127.891 69.1302 127.734 69.2279 127.539 69.2539C127.435 69.2539 127.318 69.2539 127.188 69.2539ZM142.48 68.7461C142.311 68.9154 142.103 69 141.855 69C141.608 69 141.393 68.9154 141.211 68.7461C141.029 68.5638 140.938 68.3424 140.938 68.082V59.0586C140.938 58.7982 141.029 58.5833 141.211 58.4141C141.393 58.2318 141.608 58.1406 141.855 58.1406C142.103 58.1406 142.311 58.2318 142.48 58.4141C142.663 58.5833 142.754 58.7982 142.754 59.0586V68.082C142.754 68.3424 142.663 68.5638 142.48 68.7461ZM142.754 55.5625C142.52 55.7839 142.22 55.8945 141.855 55.8945C141.504 55.8945 141.204 55.7839 140.957 55.5625C140.723 55.3411 140.605 55.0612 140.605 54.7227C140.605 54.3581 140.723 54.0716 140.957 53.8633C141.191 53.6419 141.491 53.5312 141.855 53.5312C142.233 53.5312 142.539 53.6419 142.773 53.8633C143.008 54.0716 143.125 54.3581 143.125 54.7227C143.125 55.0612 143.001 55.3411 142.754 55.5625ZM160.801 69.2539C159.316 69.2539 158.079 68.7461 157.09 67.7305C156.1 66.7018 155.605 65.3151 155.605 63.5703C155.605 62.724 155.742 61.9362 156.016 61.207C156.289 60.4779 156.654 59.8724 157.109 59.3906C157.565 58.9089 158.086 58.5378 158.672 58.2773C159.271 58.0039 159.883 57.8672 160.508 57.8672C161.771 57.8672 162.773 58.2643 163.516 59.0586C164.271 59.8398 164.701 60.9206 164.805 62.3008C164.805 62.3529 164.805 62.3984 164.805 62.4375C164.805 62.8542 164.648 63.2122 164.336 63.5117C163.971 63.8372 163.542 64 163.047 64H157.617C157.565 64 157.52 64.0195 157.48 64.0586C157.454 64.0977 157.441 64.1432 157.441 64.1953C157.533 65.3021 157.904 66.181 158.555 66.832C159.206 67.4831 160.033 67.8086 161.035 67.8086C161.79 67.8086 162.5 67.6328 163.164 67.2812C163.32 67.2031 163.49 67.1901 163.672 67.2422C163.854 67.2812 163.991 67.3789 164.082 67.5352C164.173 67.7044 164.193 67.8867 164.141 68.082C164.102 68.2643 163.997 68.401 163.828 68.4922C162.865 69 161.855 69.2539 160.801 69.2539ZM157.422 62.5352C157.422 62.5742 157.441 62.6068 157.48 62.6328C157.507 62.6719 157.546 62.6914 157.598 62.6914H163.027C163.092 62.6914 163.138 62.6784 163.164 62.6523C163.203 62.6133 163.223 62.5677 163.223 62.5156C163.223 62.5156 163.223 62.5091 163.223 62.4961C163.197 61.4674 162.949 60.6797 162.48 60.1328C162.012 59.5859 161.361 59.3125 160.527 59.3125C159.759 59.3125 159.089 59.599 158.516 60.1719C157.786 60.875 157.422 61.6628 157.422 62.5352ZM179.375 68.8828C179.128 69.1302 178.815 69.2539 178.438 69.2539C178.073 69.2539 177.76 69.1302 177.5 68.8828C177.253 68.6224 177.129 68.2904 177.129 67.8867C177.129 67.4831 177.253 67.1445 177.5 66.8711C177.76 66.5977 178.073 66.4609 178.438 66.4609C178.802 66.4609 179.115 66.5977 179.375 66.8711C179.635 67.1445 179.766 67.4831 179.766 67.8867C179.766 68.2904 179.635 68.6224 179.375 68.8828ZM194.902 69C194.434 69 194.03 68.8372 193.691 68.5117C193.366 68.1732 193.203 67.7695 193.203 67.3008V55.2695C193.203 55.0091 193.294 54.7878 193.477 54.6055C193.659 54.4232 193.88 54.332 194.141 54.332C194.401 54.332 194.622 54.4232 194.805 54.6055C194.987 54.7878 195.078 55.0091 195.078 55.2695V67.2227C195.078 67.3529 195.143 67.418 195.273 67.418H200.684C200.905 67.418 201.087 67.4961 201.23 67.6523C201.387 67.8086 201.465 67.9974 201.465 68.2188C201.465 68.4271 201.387 68.6094 201.23 68.7656C201.087 68.9219 200.905 69 200.684 69H194.902ZM216.387 69.2539C215.449 69.2539 214.681 68.9805 214.082 68.4336C213.496 67.8867 213.203 67.138 213.203 66.1875C213.203 65.0286 213.717 64.1302 214.746 63.4922C215.788 62.8542 217.435 62.4049 219.688 62.1445C219.831 62.1315 219.896 62.0599 219.883 61.9297C219.831 60.224 219.089 59.3711 217.656 59.3711C216.81 59.3711 215.924 59.6315 215 60.1523C214.831 60.2565 214.648 60.2891 214.453 60.25C214.271 60.1979 214.128 60.0872 214.023 59.918C213.932 59.7357 213.906 59.5469 213.945 59.3516C213.997 59.1562 214.115 59.0065 214.297 58.9023C215.56 58.2122 216.777 57.8672 217.949 57.8672C219.225 57.8672 220.169 58.2643 220.781 59.0586C221.406 59.8398 221.719 60.9271 221.719 62.3203V68.2578C221.719 68.4661 221.641 68.6419 221.484 68.7852C221.341 68.9284 221.165 69 220.957 69C220.749 69 220.56 68.9284 220.391 68.7852C220.234 68.6419 220.143 68.4661 220.117 68.2578L220.059 67.7305C220.059 67.7044 220.046 67.6914 220.02 67.6914C220.007 67.6914 219.987 67.6979 219.961 67.7109C218.711 68.7396 217.52 69.2539 216.387 69.2539ZM216.914 67.8086C217.396 67.8086 217.858 67.7044 218.301 67.4961C218.743 67.2747 219.225 66.9362 219.746 66.4805C219.837 66.4023 219.883 66.2982 219.883 66.168V63.5117C219.883 63.4596 219.863 63.4206 219.824 63.3945C219.798 63.3555 219.766 63.3359 219.727 63.3359C219.714 63.3359 219.707 63.3359 219.707 63.3359C218.001 63.5573 216.79 63.8893 216.074 64.332C215.358 64.7747 215 65.3477 215 66.0508C215 66.6497 215.169 67.0924 215.508 67.3789C215.859 67.6654 216.328 67.8086 216.914 67.8086ZM239.941 69.2539C238.887 69.2539 237.858 68.8047 236.855 67.9062C236.842 67.8932 236.823 67.8867 236.797 67.8867C236.784 67.8867 236.777 67.8932 236.777 67.9062L236.719 68.2773C236.693 68.4857 236.602 68.6615 236.445 68.8047C236.289 68.9349 236.107 69 235.898 69C235.69 69 235.514 68.9284 235.371 68.7852C235.228 68.6419 235.156 68.4727 235.156 68.2773V53.9805C235.156 53.7331 235.247 53.5247 235.43 53.3555C235.612 53.1732 235.827 53.082 236.074 53.082C236.322 53.082 236.53 53.1732 236.699 53.3555C236.882 53.5247 236.973 53.7331 236.973 53.9805V57.4375L236.934 59.1953C236.934 59.2344 236.947 59.2669 236.973 59.293C237.012 59.306 237.044 59.2995 237.07 59.2734C238.19 58.3359 239.271 57.8672 240.312 57.8672C241.706 57.8672 242.78 58.362 243.535 59.3516C244.29 60.3411 244.668 61.6823 244.668 63.375C244.668 65.1719 244.206 66.6042 243.281 67.6719C242.37 68.7266 241.257 69.2539 239.941 69.2539ZM239.648 67.7305C240.56 67.7305 241.302 67.3464 241.875 66.5781C242.461 65.7969 242.754 64.7422 242.754 63.4141C242.754 60.7318 241.803 59.3906 239.902 59.3906C239.056 59.3906 238.132 59.8529 237.129 60.7773C237.025 60.8555 236.973 60.9596 236.973 61.0898V66.4023C236.973 66.5326 237.025 66.6432 237.129 66.7344C237.962 67.3984 238.802 67.7305 239.648 67.7305Z" fill="#181818"/>
<path d="M36 50.5H4.5C4.5 50.5 7 60 21 59.5C35 59 36 50.5 36 50.5Z" fill="#181818"/>
<mask id="path-3-outside-1_37_2" maskUnits="userSpaceOnUse" x="1.50049" y="25.7494" width="37" height="35" fill="black">
<rect fill="white" x="1.50049" y="25.7494" width="37" height="35"/>
<path fill-rule="evenodd" clip-rule="evenodd" d="M21.7499 27.4525L33.7374 38.94C37.2374 42.2775 38.1374 46.765 37.0999 50.715H36.7104C35.397 55.6382 31.1011 59.75 25.084 59.75H14.904C8.89835 59.75 4.60276 55.6379 3.28946 50.715H2.89993C1.87493 46.765 2.76243 42.29 6.26243 38.94L18.2499 27.4525C19.2249 26.515 20.7749 26.515 21.7499 27.4525ZM4.3276 50.715C5.61772 55.1418 9.51375 58.75 14.904 58.75H25.084C30.4861 58.75 34.3822 55.1415 35.6723 50.715H19.9999H4.3276ZM33.0473 39.6637C36.0436 42.5208 36.9627 46.2798 36.3022 49.715H19.9999H3.6998C3.04765 46.2792 3.95778 42.5301 6.95389 39.6624L6.95432 39.662L18.9418 28.1745L18.943 28.1733C19.5309 27.6081 20.4689 27.6081 21.0568 28.1733L21.058 28.1745L33.0455 39.662L33.0473 39.6637Z"/>
</mask>
<path fill-rule="evenodd" clip-rule="evenodd" d="M21.7499 27.4525L33.7374 38.94C37.2374 42.2775 38.1374 46.765 37.0999 50.715H36.7104C35.397 55.6382 31.1011 59.75 25.084 59.75H14.904C8.89835 59.75 4.60276 55.6379 3.28946 50.715H2.89993C1.87493 46.765 2.76243 42.29 6.26243 38.94L18.2499 27.4525C19.2249 26.515 20.7749 26.515 21.7499 27.4525ZM4.3276 50.715C5.61772 55.1418 9.51375 58.75 14.904 58.75H25.084C30.4861 58.75 34.3822 55.1415 35.6723 50.715H19.9999H4.3276ZM33.0473 39.6637C36.0436 42.5208 36.9627 46.2798 36.3022 49.715H19.9999H3.6998C3.04765 46.2792 3.95778 42.5301 6.95389 39.6624L6.95432 39.662L18.9418 28.1745L18.943 28.1733C19.5309 27.6081 20.4689 27.6081 21.0568 28.1733L21.058 28.1745L33.0455 39.662L33.0473 39.6637Z" fill="black"/>
<path d="M33.7374 38.94L33.3915 39.301L33.3924 39.3018L33.7374 38.94ZM21.7499 27.4525L21.4034 27.8129L21.404 27.8135L21.7499 27.4525ZM37.0999 50.715V51.215H37.4856L37.5835 50.842L37.0999 50.715ZM36.7104 50.715V50.215H36.3263L36.2273 50.5861L36.7104 50.715ZM3.28946 50.715L3.77257 50.5861L3.67357 50.215H3.28946V50.715ZM2.89993 50.715L2.41596 50.8406L2.51312 51.215H2.89993V50.715ZM6.26243 38.94L6.60816 39.3012L6.60838 39.301L6.26243 38.94ZM18.2499 27.4525L18.5959 27.8135L18.5965 27.8129L18.2499 27.4525ZM4.3276 50.715V50.215H3.66108L3.84757 50.8549L4.3276 50.715ZM35.6723 50.715L36.1523 50.8549L36.3388 50.215H35.6723V50.715ZM36.3022 49.715V50.215H36.7153L36.7933 49.8094L36.3022 49.715ZM33.0473 39.6637L32.7021 40.0254L32.7023 40.0256L33.0473 39.6637ZM3.6998 49.715L3.20857 49.8082L3.28578 50.215H3.6998V49.715ZM6.95389 39.6624L7.29962 40.0236L7.29979 40.0235L6.95389 39.6624ZM6.95432 39.662L7.30022 40.023L7.30027 40.023L6.95432 39.662ZM18.9418 28.1745L19.2878 28.5355L19.2884 28.5349L18.9418 28.1745ZM18.943 28.1733L19.2896 28.5338L19.2896 28.5337L18.943 28.1733ZM21.0568 28.1733L20.7103 28.5337L20.7109 28.5343L21.0568 28.1733ZM21.058 28.1745L21.404 27.8135L21.404 27.8135L21.058 28.1745ZM33.0455 39.662L32.6996 40.023L32.7003 40.0237L33.0455 39.662ZM34.0834 38.579L22.0959 27.0915L21.404 27.8135L33.3915 39.301L34.0834 38.579ZM37.5835 50.842C38.6633 46.7311 37.7251 42.0516 34.0825 38.5781L33.3924 39.3018C36.7498 42.5033 37.6116 46.7989 36.6163 50.588L37.5835 50.842ZM36.7104 51.215H37.0999V50.215H36.7104V51.215ZM36.2273 50.5861C34.9645 55.3197 30.8458 59.25 25.084 59.25V60.25C31.3565 60.25 35.8295 55.9568 37.1935 50.8439L36.2273 50.5861ZM25.084 59.25H14.904V60.25H25.084V59.25ZM14.904 59.25C9.15405 59.25 5.03536 55.3197 3.77257 50.5861L2.80636 50.8439C4.17016 55.9561 8.64266 60.25 14.904 60.25V59.25ZM2.89993 51.215H3.28946V50.215H2.89993V51.215ZM5.9167 38.5788C2.27439 42.065 1.34959 46.7312 2.41596 50.8406L3.3839 50.5894C2.40027 46.7988 3.25047 42.515 6.60816 39.3012L5.9167 38.5788ZM17.904 27.0915L5.91649 38.579L6.60838 39.301L18.5959 27.8135L17.904 27.0915ZM22.0965 27.0921C20.9279 25.9685 19.0719 25.9685 17.9034 27.0921L18.5965 27.8129C19.3779 27.0615 20.6219 27.0615 21.4034 27.8129L22.0965 27.0921ZM3.84757 50.8549C5.1918 55.4674 9.2639 59.25 14.904 59.25V58.25C9.7636 58.25 6.04364 54.8163 4.80763 50.5751L3.84757 50.8549ZM14.904 59.25H25.084V58.25H14.904V59.25ZM25.084 59.25C30.7357 59.25 34.808 55.4674 36.1523 50.8549L35.1922 50.5751C33.9564 54.8156 30.2366 58.25 25.084 58.25V59.25ZM19.9999 51.215H35.6723V50.215H19.9999V51.215ZM4.3276 51.215H19.9999V50.215H4.3276V51.215ZM36.7933 49.8094C37.4834 46.2193 36.5204 42.2846 33.3924 39.3018L32.7023 40.0256C35.5667 42.757 36.4419 46.3402 35.8112 49.6206L36.7933 49.8094ZM19.9999 50.215H36.3022V49.215H19.9999V50.215ZM3.6998 50.215H19.9999V49.215H3.6998V50.215ZM6.60816 39.3012C3.48065 42.2947 2.52726 46.2188 3.20857 49.8082L4.19103 49.6218C3.56804 46.3396 4.4349 42.7656 7.29962 40.0236L6.60816 39.3012ZM6.60842 39.301L6.60799 39.3014L7.29979 40.0235L7.30022 40.023L6.60842 39.301ZM18.5959 27.8135L6.60838 39.301L7.30027 40.023L19.2878 28.5355L18.5959 27.8135ZM18.5965 27.8129L18.5953 27.8141L19.2884 28.5349L19.2896 28.5338L18.5965 27.8129ZM21.4034 27.8129C20.6219 27.0615 19.3779 27.0615 18.5965 27.8129L19.2896 28.5337C19.6839 28.1546 20.3159 28.1546 20.7103 28.5337L21.4034 27.8129ZM21.404 27.8135L21.4028 27.8123L20.7109 28.5343L20.7121 28.5355L21.404 27.8135ZM33.3915 39.301L21.404 27.8135L20.7121 28.5355L32.6996 40.023L33.3915 39.301ZM33.3926 39.302L33.3908 39.3003L32.7003 40.0237L32.7021 40.0254L33.3926 39.302Z" fill="black" mask="url(#path-3-outside-1_37_2)"/>
<path d="M28 21L25 24" stroke="black" stroke-width="1.5" stroke-linecap="round"/>
<path d="M20 18L20 23" stroke="black" stroke-width="1.5" stroke-linecap="round"/>
<path d="M12 21L15 24" stroke="black" stroke-width="1.5" stroke-linecap="round"/>
<path d="M73.725 28.2188C73.9333 28.2188 74.0375 28.1146 74.0375 27.9062V26.5C74.0375 26.2917 73.9333 26.1875 73.725 26.1875H62.8187C62.6104 26.1875 62.5062 26.2917 62.5062 26.5V27.9062C62.5062 28.1146 62.6104 28.2188 62.8187 28.2188H73.725ZM62.5062 33.1562C62.5062 33.3646 62.6104 33.4688 62.8187 33.4688H73.725C73.9333 33.4688 74.0375 33.3646 74.0375 33.1562V31.7188C74.0375 31.5104 73.9333 31.4062 73.725 31.4062H62.8187C62.6104 31.4062 62.5062 31.5104 62.5062 31.7188V33.1562ZM80.8187 17.2812C81.1729 17.6146 81.35 18.0312 81.35 18.5312C81.35 19.0312 81.1729 19.4583 80.8187 19.8125C80.4646 20.1458 80.0375 20.3125 79.5375 20.3125H64.5375C64.3292 20.3125 64.1833 20.4062 64.1 20.5938C63.7875 21.3021 63.4542 21.9688 63.1 22.5938C63.0583 22.6354 63.0583 22.6875 63.1 22.75C63.1417 22.8125 63.1937 22.8438 63.2562 22.8438H75.0375C75.7875 22.8438 76.4229 23.1146 76.9437 23.6562C77.4854 24.1771 77.7562 24.8125 77.7562 25.5625V38.6562C77.7562 39.6354 77.6312 40.3854 77.3812 40.9062C77.1521 41.4479 76.725 41.8646 76.1 42.1562C75.3292 42.5104 74.0792 42.7188 72.35 42.7812C72.3292 42.7812 72.3083 42.7812 72.2875 42.7812C71.7667 42.7812 71.2979 42.6042 70.8812 42.25C70.4437 41.8958 70.1417 41.4479 69.975 40.9062C69.9125 40.7604 69.8812 40.6146 69.8812 40.4688C69.8812 40.1979 69.975 39.9479 70.1625 39.7188C70.4125 39.3646 70.7458 39.1875 71.1625 39.1875C71.1833 39.1875 71.1937 39.1875 71.1937 39.1875C71.8396 39.1875 72.5479 39.1875 73.3187 39.1875C73.5896 39.1875 73.7771 39.1458 73.8812 39.0625C73.9854 38.9583 74.0375 38.7917 74.0375 38.5625V36.9375C74.0375 36.7292 73.9333 36.625 73.725 36.625H62.8187C62.6104 36.625 62.5062 36.7292 62.5062 36.9375V40.875C62.5062 41.3958 62.3187 41.8333 61.9437 42.1875C61.5687 42.5625 61.1208 42.75 60.6 42.75C60.0792 42.75 59.6312 42.5625 59.2562 42.1875C58.9021 41.8333 58.725 41.3958 58.725 40.875V29.1562C58.725 29.0938 58.6937 29.0521 58.6312 29.0312C58.5896 29.0104 58.5479 29.0208 58.5062 29.0625C57.6729 29.9583 56.85 30.75 56.0375 31.4375C55.6833 31.6875 55.3083 31.8125 54.9125 31.8125C54.8292 31.8125 54.7354 31.8125 54.6312 31.8125C54.1104 31.7292 53.6729 31.4792 53.3187 31.0625C53.0271 30.7292 52.8812 30.3542 52.8812 29.9375C52.8812 29.875 52.8812 29.8125 52.8812 29.75C52.9229 29.25 53.1417 28.8438 53.5375 28.5312C55.9958 26.5104 58.0896 23.8646 59.8187 20.5938C59.8604 20.5312 59.8604 20.4688 59.8187 20.4062C59.7771 20.3438 59.725 20.3125 59.6625 20.3125H54.7562C54.2562 20.3125 53.8292 20.1458 53.475 19.8125C53.1208 19.4583 52.9437 19.0312 52.9437 18.5312C52.9437 18.0312 53.1208 17.6146 53.475 17.2812C53.8292 16.9271 54.2562 16.75 54.7562 16.75H61.2562C61.4646 16.75 61.6 16.6458 61.6625 16.4375C61.8917 15.8958 62.0896 15.3542 62.2562 14.8125C62.4229 14.2708 62.7458 13.8542 63.225 13.5625C63.5792 13.3542 63.9333 13.25 64.2875 13.25C64.4542 13.25 64.6208 13.2708 64.7875 13.3125C65.3083 13.4375 65.7042 13.7292 65.975 14.1875C66.1417 14.4792 66.225 14.7708 66.225 15.0625C66.225 15.2708 66.1833 15.4792 66.1 15.6875C66.0167 15.9583 65.9229 16.2083 65.8187 16.4375C65.7979 16.5208 65.8083 16.5938 65.85 16.6562C65.8917 16.7188 65.9542 16.75 66.0375 16.75H79.5375C80.0375 16.75 80.4646 16.9271 80.8187 17.2812ZM108.216 15.6562C108.487 15.0729 108.914 14.6562 109.497 14.4062C109.81 14.2812 110.112 14.2188 110.404 14.2188C110.695 14.2188 110.977 14.2708 111.247 14.375C111.81 14.6042 112.185 15 112.372 15.5625C112.456 15.7708 112.497 15.9792 112.497 16.1875C112.497 16.5208 112.393 16.8542 112.185 17.1875C111.143 18.875 110.185 20.3229 109.31 21.5312C108.977 21.9688 108.55 22.25 108.029 22.375C107.841 22.4167 107.654 22.4375 107.466 22.4375C107.154 22.4375 106.841 22.375 106.529 22.25C106.091 22.0417 105.81 21.7188 105.685 21.2812C105.643 21.1146 105.622 20.9583 105.622 20.8125C105.622 20.5208 105.706 20.25 105.872 20C106.747 18.6042 107.529 17.1562 108.216 15.6562ZM94.1537 19.0938C94.2996 19.3646 94.3725 19.6458 94.3725 19.9375C94.3725 20.1875 94.3204 20.4375 94.2162 20.6875C93.9871 21.2292 93.6017 21.625 93.06 21.875C92.81 21.9792 92.56 22.0312 92.31 22.0312C92.06 22.0312 91.81 21.9792 91.56 21.875C91.06 21.6458 90.6954 21.2812 90.4662 20.7812C90.2371 20.2604 89.9662 19.7083 89.6537 19.125C89.2162 18.3333 88.7683 17.5625 88.31 16.8125C88.1225 16.5417 88.0287 16.2604 88.0287 15.9688C88.0287 15.8021 88.0496 15.6458 88.0912 15.5C88.2162 15.0208 88.5079 14.6875 88.9662 14.5C89.2787 14.3542 89.6017 14.2812 89.935 14.2812C90.1433 14.2812 90.3517 14.3021 90.56 14.3438C91.1017 14.4896 91.5287 14.7917 91.8412 15.25C92.7996 16.6042 93.5704 17.8854 94.1537 19.0938ZM113.841 24.6562C114.216 25.0312 114.404 25.4896 114.404 26.0312C114.404 26.5729 114.216 27.0312 113.841 27.4062C113.466 27.7812 113.008 27.9688 112.466 27.9688H105.091C105.029 27.9688 104.977 28 104.935 28.0625C104.914 28.125 104.925 28.1771 104.966 28.2188C106.237 30.0312 107.768 31.75 109.56 33.375C110.852 34.5417 112.143 35.5625 113.435 36.4375C113.893 36.75 114.143 37.1771 114.185 37.7188C114.206 37.7812 114.216 37.8542 114.216 37.9375C114.216 38.375 114.06 38.7708 113.747 39.125C113.331 39.6042 112.831 39.8958 112.247 40C112.122 40.0208 111.997 40.0312 111.872 40.0312C111.435 40.0312 111.018 39.8854 110.622 39.5938C109.372 38.6354 108.143 37.5312 106.935 36.2812C105.247 34.5312 103.706 32.6458 102.31 30.625C102.268 30.5833 102.227 30.5729 102.185 30.5938C102.143 30.6146 102.122 30.6458 102.122 30.6875V40.0312C102.122 40.5938 101.914 41.0729 101.497 41.4688C101.102 41.8854 100.622 42.0938 100.06 42.0938C99.4975 42.0938 99.0079 41.8854 98.5912 41.4688C98.1954 41.0729 97.9975 40.5938 97.9975 40.0312V30.8125C97.9975 30.7708 97.9767 30.75 97.935 30.75C97.8933 30.7292 97.8517 30.7292 97.81 30.75C95.3725 34.4375 92.6017 37.4583 89.4975 39.8125C89.1017 40.0833 88.685 40.2188 88.2475 40.2188C88.1433 40.2188 88.0287 40.2083 87.9037 40.1875C87.3204 40.0833 86.8308 39.8021 86.435 39.3438C86.1433 39.0104 85.9975 38.625 85.9975 38.1875C85.9975 38.125 85.9975 38.0521 85.9975 37.9688C86.06 37.4271 86.31 37.0104 86.7475 36.7188C88.06 35.8229 89.3725 34.7708 90.685 33.5625C92.4767 31.875 93.9975 30.0938 95.2475 28.2188C95.2892 28.1771 95.2892 28.125 95.2475 28.0625C95.2267 28 95.185 27.9688 95.1225 27.9688H87.685C87.1433 27.9688 86.685 27.7812 86.31 27.4062C85.935 27.0312 85.7475 26.5729 85.7475 26.0312C85.7475 25.4896 85.935 25.0312 86.31 24.6562C86.685 24.2812 87.1433 24.0938 87.685 24.0938H97.685C97.8933 24.0938 97.9975 23.9896 97.9975 23.7812V14.2812C97.9975 13.7188 98.1954 13.2396 98.5912 12.8438C99.0079 12.4271 99.4975 12.2188 100.06 12.2188C100.622 12.2188 101.102 12.4271 101.497 12.8438C101.914 13.2396 102.122 13.7188 102.122 14.2812V23.7812C102.122 23.9896 102.227 24.0938 102.435 24.0938H112.466C113.008 24.0938 113.466 24.2812 113.841 24.6562ZM124.614 22.6875C124.405 22.6875 124.301 22.7917 124.301 23V25.6562C124.301 25.8646 124.405 25.9688 124.614 25.9688H127.27C127.478 25.9688 127.582 25.8646 127.582 25.6562V23C127.582 22.7917 127.478 22.6875 127.27 22.6875H124.614ZM131.457 17.625C131.249 17.625 131.145 17.7292 131.145 17.9375V19.2812C131.145 19.4896 131.249 19.5938 131.457 19.5938H134.207C134.416 19.5938 134.52 19.4896 134.52 19.2812V17.9375C134.52 17.7292 134.416 17.625 134.207 17.625H131.457ZM141.52 23C141.52 22.7917 141.416 22.6875 141.207 22.6875H138.364C138.155 22.6875 138.051 22.7917 138.051 23V25.6562C138.051 25.8646 138.155 25.9688 138.364 25.9688H141.207C141.416 25.9688 141.52 25.8646 141.52 25.6562V23ZM131.145 25.6562C131.145 25.8646 131.249 25.9688 131.457 25.9688H134.207C134.416 25.9688 134.52 25.8646 134.52 25.6562V23C134.52 22.7917 134.416 22.6875 134.207 22.6875H131.457C131.249 22.6875 131.145 22.7917 131.145 23V25.6562ZM146.832 31.4688C147.166 31.7812 147.332 32.1771 147.332 32.6562C147.332 33.1146 147.166 33.5104 146.832 33.8438C146.52 34.1562 146.124 34.3125 145.645 34.3125H138.082C138.02 34.3125 137.978 34.3333 137.957 34.375C137.957 34.4167 137.978 34.4583 138.02 34.5C140.332 36.25 143.03 37.6562 146.114 38.7188C146.551 38.8854 146.832 39.1875 146.957 39.625C146.999 39.75 147.02 39.875 147.02 40C147.02 40.3125 146.916 40.5938 146.707 40.8438C146.332 41.3229 145.864 41.6458 145.301 41.8125C145.051 41.8958 144.801 41.9375 144.551 41.9375C144.239 41.9375 143.937 41.875 143.645 41.75C140.478 40.3958 137.645 38.5938 135.145 36.3438C135.103 36.3021 135.051 36.2917 134.989 36.3125C134.926 36.3333 134.895 36.375 134.895 36.4375V40.9062C134.895 41.4271 134.707 41.875 134.332 42.25C133.957 42.625 133.51 42.8125 132.989 42.8125C132.468 42.8125 132.02 42.625 131.645 42.25C131.27 41.875 131.082 41.4271 131.082 40.9062V36.5C131.082 36.4375 131.051 36.3958 130.989 36.375C130.926 36.3542 130.874 36.3646 130.832 36.4062C128.374 38.6146 125.551 40.4062 122.364 41.7812C122.051 41.8854 121.749 41.9375 121.457 41.9375C121.207 41.9375 120.957 41.9062 120.707 41.8438C120.145 41.6562 119.676 41.3229 119.301 40.8438C119.093 40.5938 118.989 40.3229 118.989 40.0312C118.989 39.9062 119.01 39.7708 119.051 39.625C119.176 39.1875 119.457 38.8958 119.895 38.75C123.062 37.6667 125.791 36.25 128.082 34.5C128.124 34.4583 128.135 34.4167 128.114 34.375C128.093 34.3333 128.051 34.3125 127.989 34.3125H120.457C119.999 34.3125 119.603 34.1562 119.27 33.8438C118.937 33.5104 118.77 33.1146 118.77 32.6562C118.77 32.1771 118.937 31.7812 119.27 31.4688C119.603 31.1354 119.999 30.9688 120.457 30.9688H130.77C130.978 30.9688 131.082 30.8646 131.082 30.6562V29.4062C131.082 29.1979 130.978 29.0938 130.77 29.0938H123.52C122.77 29.0938 122.124 28.8333 121.582 28.3125C121.062 27.7708 120.801 27.125 120.801 26.375V22.3125C120.801 21.5625 121.062 20.9271 121.582 20.4062C122.124 19.8646 122.77 19.5938 123.52 19.5938H127.27C127.478 19.5938 127.582 19.4896 127.582 19.2812V17.9375C127.582 17.7292 127.478 17.625 127.27 17.625H120.614C120.155 17.625 119.76 17.4688 119.426 17.1562C119.114 16.8229 118.957 16.4375 118.957 16C118.957 15.5417 119.114 15.1562 119.426 14.8438C119.76 14.5104 120.155 14.3438 120.614 14.3438H145.52C145.978 14.3438 146.364 14.5104 146.676 14.8438C147.01 15.1562 147.176 15.5417 147.176 16C147.176 16.4375 147.01 16.8229 146.676 17.1562C146.364 17.4688 145.978 17.625 145.52 17.625H138.364C138.155 17.625 138.051 17.7292 138.051 17.9375V19.2812C138.051 19.4896 138.155 19.5938 138.364 19.5938H142.582C143.332 19.5938 143.968 19.8646 144.489 20.4062C145.03 20.9271 145.301 21.5625 145.301 22.3125V26.375C145.301 27.125 145.03 27.7708 144.489 28.3125C143.968 28.8333 143.332 29.0938 142.582 29.0938H135.207C134.999 29.0938 134.895 29.1979 134.895 29.4062V30.6562C134.895 30.8646 134.999 30.9688 135.207 30.9688H145.645C146.124 30.9688 146.52 31.1354 146.832 31.4688ZM156.074 17.8125C155.886 17.8125 155.792 17.9062 155.792 18.0938V18.75C155.792 19.2083 155.626 19.6042 155.292 19.9375C154.959 20.2708 154.553 20.4375 154.074 20.4375C153.615 20.4375 153.22 20.2708 152.886 19.9375C152.553 19.6042 152.386 19.2083 152.386 18.75V17.5625C152.386 16.8125 152.647 16.1771 153.167 15.6562C153.709 15.1146 154.355 14.8438 155.105 14.8438H163.855C164.001 14.8438 164.074 14.7812 164.074 14.6562C164.074 14.1562 164.24 13.7396 164.574 13.4062C164.907 13.0729 165.324 12.9062 165.824 12.9062H166.105C166.605 12.9062 167.022 13.0729 167.355 13.4062C167.688 13.7396 167.855 14.1562 167.855 14.6562C167.855 14.7812 167.928 14.8438 168.074 14.8438H176.886C177.636 14.8438 178.272 15.1146 178.792 15.6562C179.334 16.1771 179.605 16.8125 179.605 17.5625V18.6875C179.605 19.1667 179.428 19.5833 179.074 19.9375C178.74 20.2708 178.324 20.4375 177.824 20.4375C177.345 20.4375 176.928 20.2708 176.574 19.9375C176.24 19.5833 176.074 19.1667 176.074 18.6875V18.0938C176.074 17.9062 175.98 17.8125 175.792 17.8125H156.074ZM159.48 35.2188C159.272 35.2188 159.167 35.3229 159.167 35.5312V35.9062C159.167 36.1146 159.272 36.2188 159.48 36.2188H172.511C172.72 36.2188 172.824 36.1146 172.824 35.9062V35.5312C172.824 35.3229 172.72 35.2188 172.511 35.2188H159.48ZM159.48 32.375C159.272 32.375 159.167 32.4792 159.167 32.6875V33.0312C159.167 33.2396 159.272 33.3438 159.48 33.3438H172.511C172.72 33.3438 172.824 33.2396 172.824 33.0312V32.6875C172.824 32.4792 172.72 32.375 172.511 32.375H159.48ZM159.48 29.5625C159.272 29.5625 159.167 29.6667 159.167 29.875V30.1875C159.167 30.3958 159.272 30.5 159.48 30.5H172.511C172.72 30.5 172.824 30.3958 172.824 30.1875V29.875C172.824 29.6667 172.72 29.5625 172.511 29.5625H159.48ZM176.699 35.5312C176.699 36.2812 176.428 36.9271 175.886 37.4688C175.365 37.9896 174.73 38.25 173.98 38.25H172.574C172.532 38.25 172.511 38.2604 172.511 38.2812C172.511 38.3021 172.522 38.3125 172.542 38.3125C174.459 38.8542 176.365 39.4375 178.261 40.0625C178.699 40.2083 178.917 40.5104 178.917 40.9688C178.917 41.2812 178.772 41.5312 178.48 41.7188C177.834 42.1354 177.147 42.3438 176.417 42.3438C175.959 42.3438 175.49 42.2604 175.011 42.0938C173.261 41.4688 171.313 40.8229 169.167 40.1562C168.772 40.0521 168.532 39.7917 168.449 39.375C168.449 39.2917 168.449 39.2188 168.449 39.1562C168.449 38.8438 168.574 38.5833 168.824 38.375C168.845 38.3542 168.845 38.3333 168.824 38.3125C168.803 38.2708 168.782 38.25 168.761 38.25H162.98C162.938 38.25 162.907 38.2708 162.886 38.3125C162.886 38.3333 162.907 38.3542 162.949 38.375C163.303 38.6042 163.48 38.9271 163.48 39.3438C163.48 39.8646 163.251 40.2188 162.792 40.4062C160.73 41.2604 158.292 41.9583 155.48 42.5C155.292 42.5417 155.105 42.5625 154.917 42.5625C154.126 42.5625 153.397 42.2083 152.73 41.5C152.501 41.25 152.438 40.9583 152.542 40.625C152.647 40.3125 152.865 40.125 153.199 40.0625C155.761 39.5833 157.959 39.0104 159.792 38.3438C159.834 38.3438 159.845 38.3333 159.824 38.3125C159.824 38.2708 159.813 38.25 159.792 38.25H158.199C157.449 38.25 156.803 37.9896 156.261 37.4688C155.74 36.9271 155.48 36.2812 155.48 35.5312V30.3125C155.48 29.5625 155.74 28.9271 156.261 28.4062C156.803 27.8646 157.449 27.5938 158.199 27.5938H173.98C174.73 27.5938 175.365 27.8646 175.886 28.4062C176.428 28.9271 176.699 29.5625 176.699 30.3125V35.5312ZM167.011 24.4375C167.011 24.5208 167.032 24.5938 167.074 24.6562C167.136 24.7188 167.209 24.75 167.292 24.75H171.011C171.22 24.75 171.334 24.6458 171.355 24.4375L171.386 24.0625C171.407 23.9792 171.386 23.9062 171.324 23.8438C171.261 23.7812 171.188 23.75 171.105 23.75H167.417C167.209 23.75 167.095 23.8542 167.074 24.0625L167.011 24.4375ZM160.199 23.75C159.99 23.75 159.876 23.8542 159.855 24.0625L159.824 24.4375C159.803 24.5208 159.813 24.5938 159.855 24.6562C159.917 24.7188 159.99 24.75 160.074 24.75H163.48C163.688 24.75 163.813 24.6458 163.855 24.4375L163.886 24.0625C163.907 23.9792 163.886 23.9062 163.824 23.8438C163.761 23.7812 163.688 23.75 163.605 23.75H160.199ZM164.261 21.0938C164.261 21.0104 164.23 20.9375 164.167 20.875C164.126 20.8125 164.063 20.7812 163.98 20.7812H160.605C160.397 20.7812 160.272 20.875 160.23 21.0625L160.199 21.4375C160.178 21.5208 160.199 21.5938 160.261 21.6562C160.324 21.7188 160.397 21.75 160.48 21.75H163.886C164.095 21.75 164.209 21.6458 164.23 21.4375L164.261 21.0938ZM171.261 21.75C171.47 21.75 171.584 21.6458 171.605 21.4375L171.636 21.0938C171.657 21.0104 171.636 20.9375 171.574 20.875C171.511 20.8125 171.438 20.7812 171.355 20.7812H167.73C167.522 20.7812 167.407 20.8854 167.386 21.0938L167.355 21.4375C167.355 21.5208 167.376 21.5938 167.417 21.6562C167.48 21.7188 167.553 21.75 167.636 21.75H171.261ZM175.136 21.1562C175.115 21.3229 175.188 21.4062 175.355 21.4062H178.855C179.209 21.4062 179.522 21.5417 179.792 21.8125C180.063 22.0625 180.199 22.375 180.199 22.75C180.199 23.125 180.063 23.4479 179.792 23.7188C179.522 23.9688 179.209 24.0938 178.855 24.0938H175.105C174.938 24.0938 174.845 24.1771 174.824 24.3438C174.761 24.9896 174.49 25.5312 174.011 25.9688C173.553 26.4062 173.001 26.625 172.355 26.625H158.48C157.876 26.625 157.365 26.3958 156.949 25.9375C156.615 25.5625 156.449 25.125 156.449 24.625C156.449 24.5417 156.459 24.4479 156.48 24.3438C156.501 24.1771 156.417 24.0938 156.23 24.0938H153.167C152.813 24.0938 152.501 23.9688 152.23 23.7188C151.959 23.4479 151.824 23.125 151.824 22.75C151.824 22.375 151.959 22.0625 152.23 21.8125C152.501 21.5417 152.813 21.4062 153.167 21.4062H156.605C156.772 21.4062 156.865 21.3229 156.886 21.1562C156.97 20.4896 157.261 19.9375 157.761 19.5C158.261 19.0625 158.834 18.8438 159.48 18.8438H173.042C173.667 18.8438 174.188 19.0729 174.605 19.5312C174.959 19.9271 175.136 20.3854 175.136 20.9062C175.136 20.9896 175.136 21.0729 175.136 21.1562ZM201.94 20.25C201.898 20.2917 201.888 20.3438 201.909 20.4062C201.93 20.4479 201.971 20.4688 202.034 20.4688H208.159C208.221 20.4688 208.263 20.4479 208.284 20.4062C208.305 20.3438 208.294 20.2917 208.253 20.25C207.003 19.0417 205.982 17.8125 205.19 16.5625C205.148 16.5 205.086 16.4688 205.003 16.4688C204.94 16.4688 204.898 16.5 204.878 16.5625C204.128 17.8125 203.148 19.0417 201.94 20.25ZM202.815 23.25C202.294 23.25 201.857 23.0729 201.503 22.7188C201.148 22.3438 200.971 21.9062 200.971 21.4062C200.971 21.3646 200.95 21.3333 200.909 21.3125C200.867 21.2917 200.825 21.2917 200.784 21.3125C200.284 21.7708 199.763 22.1979 199.221 22.5938C198.971 22.7604 198.711 22.8438 198.44 22.8438C198.273 22.8438 198.117 22.8125 197.971 22.75C197.534 22.6042 197.2 22.3229 196.971 21.9062C196.805 21.6146 196.721 21.3125 196.721 21C196.721 20.8542 196.742 20.7083 196.784 20.5625C196.888 20.0833 197.138 19.7083 197.534 19.4375C199.43 18.1042 201.044 16.4167 202.378 14.375C203.023 13.4167 203.867 12.9375 204.909 12.9375C205.992 12.9375 206.878 13.4062 207.565 14.3438C209.065 16.3646 210.742 17.9688 212.596 19.1562C213.034 19.4479 213.315 19.8333 213.44 20.3125C213.482 20.5 213.503 20.6771 213.503 20.8438C213.503 21.1562 213.43 21.4583 213.284 21.75C213.013 22.2083 212.628 22.5 212.128 22.625C211.982 22.6667 211.836 22.6875 211.69 22.6875C211.357 22.6875 211.044 22.5938 210.753 22.4062C210.357 22.0938 209.95 21.7708 209.534 21.4375C209.492 21.4167 209.45 21.4167 209.409 21.4375C209.388 21.4583 209.378 21.4792 209.378 21.5C209.378 22 209.2 22.4167 208.846 22.75C208.513 23.0833 208.107 23.25 207.628 23.25H202.815ZM208.534 27.0312C208.325 27.0312 208.221 27.1354 208.221 27.3438V29.7812C208.221 29.9896 208.325 30.0938 208.534 30.0938H209.909C210.117 30.0938 210.221 29.9896 210.221 29.7812V27.3438C210.221 27.1354 210.117 27.0312 209.909 27.0312H208.534ZM208.471 32.4688C207.721 32.4688 207.075 32.2083 206.534 31.6875C206.013 31.1458 205.753 30.5 205.753 29.75V27.4062C205.753 26.6354 206.013 25.9896 206.534 25.4688C207.075 24.9479 207.721 24.6875 208.471 24.6875H210.159C210.93 24.6875 211.575 24.9479 212.096 25.4688C212.617 25.9896 212.878 26.6354 212.878 27.4062V29.75C212.878 30.5 212.617 31.1458 212.096 31.6875C211.575 32.2083 210.93 32.4688 210.159 32.4688H208.471ZM200.534 27.0312C200.325 27.0312 200.221 27.1354 200.221 27.3438V29.7812C200.221 29.9896 200.325 30.0938 200.534 30.0938H201.69C201.898 30.0938 202.003 29.9896 202.003 29.7812V27.3438C202.003 27.1354 201.898 27.0312 201.69 27.0312H200.534ZM200.44 32.4688C199.69 32.4688 199.044 32.2083 198.503 31.6875C197.982 31.1458 197.721 30.5 197.721 29.75V27.4062C197.721 26.6354 197.982 25.9896 198.503 25.4688C199.044 24.9479 199.69 24.6875 200.44 24.6875H201.878C202.628 24.6875 203.263 24.9479 203.784 25.4688C204.325 25.9896 204.596 26.6354 204.596 27.4062V29.75C204.596 30.5 204.325 31.1458 203.784 31.6875C203.263 32.2083 202.628 32.4688 201.878 32.4688H200.44ZM186.065 40.0625C185.94 40.3333 185.732 40.5104 185.44 40.5938C185.148 40.6979 184.867 40.6771 184.596 40.5312C184.346 40.4062 184.18 40.1979 184.096 39.9062C184.055 39.7812 184.034 39.6562 184.034 39.5312C184.034 39.3646 184.065 39.2083 184.128 39.0625C184.607 37.8542 184.909 36.1354 185.034 33.9062C185.055 33.6354 185.169 33.4167 185.378 33.25C185.607 33.0625 185.857 33 186.128 33.0625C186.419 33.1042 186.659 33.25 186.846 33.5C187.034 33.7292 187.117 34 187.096 34.3125C186.93 36.8958 186.586 38.8125 186.065 40.0625ZM187.534 34.3438C187.513 34.1146 187.565 33.9167 187.69 33.75C187.836 33.5625 188.023 33.4583 188.253 33.4375C188.482 33.4167 188.68 33.4792 188.846 33.625C189.034 33.75 189.138 33.9271 189.159 34.1562C189.305 35.3438 189.378 36.6146 189.378 37.9688C189.378 38.0938 189.367 38.2292 189.346 38.375C189.346 38.625 189.263 38.8438 189.096 39.0312C188.93 39.1979 188.721 39.2917 188.471 39.3125C188.242 39.3542 188.044 39.3021 187.878 39.1562C187.732 38.9896 187.659 38.7917 187.659 38.5625C187.68 38.2083 187.69 37.8438 187.69 37.4688C187.69 36.4479 187.638 35.4062 187.534 34.3438ZM189.596 34.0938C189.555 33.8854 189.586 33.6875 189.69 33.5C189.815 33.3125 189.982 33.1979 190.19 33.1562C190.419 33.1146 190.628 33.1562 190.815 33.2812C191.003 33.4062 191.117 33.5729 191.159 33.7812C191.492 35.1354 191.721 36.3438 191.846 37.4062C191.867 37.6354 191.805 37.8438 191.659 38.0312C191.513 38.1979 191.325 38.3021 191.096 38.3438C190.888 38.3854 190.7 38.3438 190.534 38.2188C190.367 38.0729 190.273 37.8958 190.253 37.6875C190.148 36.5625 189.93 35.3646 189.596 34.0938ZM188.565 26.5312C188.357 26.5312 188.253 26.6354 188.253 26.8438V28.25C188.253 28.4583 188.357 28.5625 188.565 28.5625H189.909C190.117 28.5625 190.221 28.4583 190.221 28.25V26.8438C190.221 26.6354 190.117 26.5312 189.909 26.5312H188.565ZM190.221 17.3438C190.221 17.1354 190.117 17.0312 189.909 17.0312H188.565C188.357 17.0312 188.253 17.1354 188.253 17.3438V18.6875C188.253 18.8958 188.357 19 188.565 19H189.909C190.117 19 190.221 18.8958 190.221 18.6875V17.3438ZM189.909 23.75C190.117 23.75 190.221 23.6458 190.221 23.4375V22.0938C190.221 21.8854 190.117 21.7812 189.909 21.7812H188.565C188.357 21.7812 188.253 21.8854 188.253 22.0938V23.4375C188.253 23.6458 188.357 23.75 188.565 23.75H189.909ZM207.534 34.5625C207.617 34.125 207.825 33.7604 208.159 33.4688C208.471 33.2188 208.825 33.0938 209.221 33.0938C209.263 33.0938 209.294 33.0938 209.315 33.0938C209.753 33.1146 210.107 33.2917 210.378 33.625C210.607 33.8958 210.721 34.1875 210.721 34.5C210.721 34.5833 210.711 34.6667 210.69 34.75C210.607 35.2917 210.503 35.8021 210.378 36.2812C210.336 36.4688 210.388 36.6458 210.534 36.8125C211.575 37.8958 212.44 38.8646 213.128 39.7188C213.357 39.9896 213.471 40.2812 213.471 40.5938C213.471 40.6771 213.461 40.7604 213.44 40.8438C213.378 41.2604 213.18 41.5938 212.846 41.8438C212.575 42.0521 212.294 42.1562 212.003 42.1562C211.919 42.1562 211.836 42.1458 211.753 42.125C211.357 42.0625 211.034 41.8646 210.784 41.5312C210.388 41.0104 209.909 40.4167 209.346 39.75C209.305 39.7083 209.242 39.6875 209.159 39.6875C209.096 39.6875 209.044 39.7188 209.003 39.7812C208.732 40.2604 208.43 40.6979 208.096 41.0938C207.659 41.5938 207.117 41.8438 206.471 41.8438C206.43 41.8438 206.388 41.8333 206.346 41.8125C205.638 41.7917 204.992 41.5312 204.409 41.0312C204.367 40.9896 204.325 40.9479 204.284 40.9062C204.221 40.8646 204.159 40.875 204.096 40.9375C203.888 41.1458 203.628 41.2396 203.315 41.2188C203.023 41.1979 202.794 41.0625 202.628 40.8125C202.315 40.4167 201.95 39.9896 201.534 39.5312C201.492 39.4688 201.43 39.4479 201.346 39.4688C201.284 39.4688 201.232 39.5 201.19 39.5625C200.919 40.0833 200.617 40.5625 200.284 41C199.805 41.5208 199.242 41.7812 198.596 41.7812C198.534 41.7812 198.482 41.7812 198.44 41.7812C197.711 41.7396 197.034 41.4688 196.409 40.9688C196.388 40.9479 196.367 40.9271 196.346 40.9062C196.284 40.8646 196.211 40.8542 196.128 40.875C196.065 40.9167 196.023 40.9688 196.003 41.0312C195.898 41.3229 195.794 41.5312 195.69 41.6562C195.232 42.3021 194.617 42.6667 193.846 42.75C193.575 42.8125 193.159 42.8542 192.596 42.875C192.596 42.875 192.586 42.875 192.565 42.875C192.169 42.875 191.825 42.7396 191.534 42.4688C191.221 42.1979 191.013 41.8438 190.909 41.4062C190.825 41.0938 190.878 40.8021 191.065 40.5312C191.273 40.2604 191.544 40.125 191.878 40.125C191.982 40.125 192.117 40.125 192.284 40.125C192.638 40.125 192.909 40 193.096 39.75C193.284 39.4583 193.44 38.5208 193.565 36.9375C193.565 36.9167 193.555 36.8958 193.534 36.875C193.513 36.8542 193.492 36.8542 193.471 36.875C193.263 36.9375 193.065 36.9167 192.878 36.8125C192.69 36.7083 192.575 36.5521 192.534 36.3438C192.305 35.4688 192.013 34.5833 191.659 33.6875C191.575 33.5208 191.575 33.3438 191.659 33.1562C191.742 32.9688 191.878 32.8542 192.065 32.8125C192.273 32.7292 192.471 32.7396 192.659 32.8438C192.846 32.9271 192.982 33.0625 193.065 33.25C193.253 33.6458 193.419 34.0625 193.565 34.5C193.586 34.5208 193.607 34.5312 193.628 34.5312C193.648 34.5312 193.669 34.5104 193.69 34.4688C193.711 33.8646 193.742 32.9688 193.784 31.7812C193.784 31.6771 193.753 31.6042 193.69 31.5625C193.628 31.5 193.555 31.4688 193.471 31.4688H188.003C187.253 31.4688 186.607 31.2083 186.065 30.6875C185.544 30.1458 185.284 29.5 185.284 28.75V16.7812C185.284 16.0104 185.544 15.3646 186.065 14.8438C186.607 14.3229 187.253 14.0625 188.003 14.0625H194.971C195.367 14.0625 195.711 14.2083 196.003 14.5C196.294 14.7708 196.44 15.1146 196.44 15.5312C196.44 15.9479 196.294 16.3021 196.003 16.5938C195.711 16.8854 195.367 17.0312 194.971 17.0312H193.44C193.232 17.0312 193.128 17.1354 193.128 17.3438V18.7188C193.128 18.9062 193.221 19 193.409 19H194.471C194.867 19 195.2 19.1354 195.471 19.4062C195.742 19.6771 195.878 20.0104 195.878 20.4062C195.878 20.7812 195.742 21.1042 195.471 21.375C195.2 21.6458 194.867 21.7812 194.471 21.7812H193.409C193.221 21.7812 193.128 21.875 193.128 22.0625V23.4375C193.128 23.6458 193.221 23.75 193.409 23.75H194.565C194.961 23.75 195.294 23.8854 195.565 24.1562C195.836 24.4271 195.971 24.7604 195.971 25.1562C195.971 25.5312 195.836 25.8542 195.565 26.125C195.294 26.3958 194.961 26.5312 194.565 26.5312H193.409C193.221 26.5312 193.128 26.625 193.128 26.8125V28.25C193.128 28.4583 193.232 28.5625 193.44 28.5625H194.065C194.815 28.5625 195.45 28.8333 195.971 29.375C196.471 29.8958 196.721 30.5104 196.721 31.2188C196.721 32.6146 196.648 34.625 196.503 37.25C196.419 38.625 196.305 39.6667 196.159 40.375C196.159 40.4167 196.18 40.4479 196.221 40.4688C196.263 40.5104 196.305 40.5208 196.346 40.5C198.096 39.25 199.19 37.2812 199.628 34.5938C199.711 34.1562 199.919 33.7917 200.253 33.5C200.565 33.25 200.909 33.125 201.284 33.125C201.325 33.125 201.367 33.125 201.409 33.125C201.825 33.1458 202.169 33.3229 202.44 33.6562C202.669 33.9062 202.784 34.1979 202.784 34.5312C202.784 34.6146 202.773 34.6979 202.753 34.7812C202.69 35.2188 202.607 35.6458 202.503 36.0625C202.461 36.25 202.513 36.4167 202.659 36.5625C203.721 37.6458 204.534 38.5625 205.096 39.3125C205.221 39.4792 205.346 39.4792 205.471 39.3125C206.492 38.1667 207.18 36.5833 207.534 34.5625ZM236.869 24.0625C236.91 24.0417 236.921 24.0208 236.9 24C236.9 23.9583 236.879 23.9375 236.837 23.9375H230.712C230.504 23.9375 230.348 24.0312 230.244 24.2188C229.91 24.7604 229.421 25.5625 228.775 26.625C228.733 26.6667 228.723 26.7188 228.744 26.7812C228.785 26.8438 228.848 26.875 228.931 26.875L236.587 26.7188C236.629 26.7188 236.65 26.7083 236.65 26.6875C236.671 26.6458 236.671 26.6042 236.65 26.5625C236.275 26.2708 236.087 25.8854 236.087 25.4062C236.087 24.8646 236.306 24.4479 236.744 24.1562L236.869 24.0625ZM242.119 18.75C242.119 18.5417 242.015 18.4375 241.806 18.4375H221.931C221.723 18.4375 221.619 18.5417 221.619 18.75V20.4062C221.619 20.6146 221.723 20.7188 221.931 20.7188H241.806C242.015 20.7188 242.119 20.6146 242.119 20.4062V18.75ZM233.744 38.2188C233.744 38.4271 233.848 38.5312 234.056 38.5312H244.494C244.952 38.5312 245.348 38.6979 245.681 39.0312C246.015 39.3438 246.181 39.7292 246.181 40.1875C246.181 40.6667 246.015 41.0625 245.681 41.375C245.348 41.7083 244.952 41.875 244.494 41.875H219.494C219.035 41.875 218.64 41.7083 218.306 41.375C217.973 41.0625 217.806 40.6667 217.806 40.1875C217.806 39.7292 217.973 39.3438 218.306 39.0312C218.64 38.6979 219.035 38.5312 219.494 38.5312H229.525C229.733 38.5312 229.837 38.4271 229.837 38.2188V36.375C229.837 36.1667 229.733 36.0625 229.525 36.0625H222.306C221.848 36.0625 221.462 35.9062 221.15 35.5938C220.837 35.2604 220.681 34.875 220.681 34.4375C220.681 33.9792 220.837 33.5938 221.15 33.2812C221.462 32.9688 221.848 32.8125 222.306 32.8125H229.525C229.733 32.8125 229.837 32.7083 229.837 32.5V30.4688C229.837 30.3646 229.806 30.2917 229.744 30.25C229.702 30.1875 229.629 30.1562 229.525 30.1562C229.025 30.1771 227.848 30.2083 225.994 30.25C224.16 30.2917 222.817 30.3229 221.962 30.3438C221.942 30.3438 221.921 30.3438 221.9 30.3438C221.442 30.3438 221.046 30.1979 220.712 29.9062C220.358 29.5521 220.181 29.125 220.181 28.625C220.181 28.1875 220.327 27.8125 220.619 27.5C220.931 27.1667 221.317 26.9896 221.775 26.9688L224.337 26.9375C224.546 26.9375 224.692 26.8438 224.775 26.6562C225.254 25.7188 225.64 24.9062 225.931 24.2188C225.952 24.1562 225.942 24.0938 225.9 24.0312C225.858 23.9688 225.806 23.9375 225.744 23.9375H223.494C222.931 23.9375 222.442 23.7396 222.025 23.3438C221.629 22.9271 221.431 22.4375 221.431 21.875C221.431 21.7083 221.358 21.625 221.212 21.625H220.65C219.879 21.625 219.233 21.3646 218.712 20.8438C218.192 20.3021 217.931 19.6562 217.931 18.9062V17.6875C217.931 16.9375 218.192 16.3021 218.712 15.7812C219.233 15.2396 219.879 14.9688 220.65 14.9688H229.65C229.775 14.9688 229.837 14.8958 229.837 14.75C229.837 14.25 230.015 13.8229 230.369 13.4688C230.744 13.1146 231.181 12.9375 231.681 12.9375H231.931C232.431 12.9375 232.858 13.1146 233.212 13.4688C233.567 13.8229 233.744 14.25 233.744 14.75C233.744 14.8958 233.817 14.9688 233.962 14.9688H243.275C244.025 14.9688 244.66 15.2396 245.181 15.7812C245.723 16.3021 245.994 16.9375 245.994 17.6875V18.9062C245.994 19.6562 245.723 20.3021 245.181 20.8438C244.66 21.3646 244.025 21.625 243.275 21.625H242.712C242.546 21.625 242.462 21.7083 242.462 21.875C242.462 22.4375 242.254 22.9271 241.837 23.3438C241.442 23.7396 240.962 23.9375 240.4 23.9375H238.775C238.733 23.9375 238.702 23.9583 238.681 24C238.66 24.0417 238.671 24.0833 238.712 24.125C240.629 25.5417 242.244 26.9062 243.556 28.2188C243.848 28.5104 243.994 28.8542 243.994 29.25C243.994 29.3125 243.994 29.375 243.994 29.4375C243.931 29.9167 243.702 30.2917 243.306 30.5625C242.973 30.8125 242.608 30.9375 242.212 30.9375C242.108 30.9375 242.015 30.9271 241.931 30.9062C241.431 30.8438 241.004 30.625 240.65 30.25C240.567 30.1667 240.494 30.0833 240.431 30C240.306 29.875 240.16 29.8229 239.994 29.8438L234.056 30C233.848 30.0208 233.744 30.1354 233.744 30.3438V32.5C233.744 32.7083 233.848 32.8125 234.056 32.8125H241.994C242.431 32.8125 242.806 32.9688 243.119 33.2812C243.452 33.5938 243.619 33.9792 243.619 34.4375C243.619 34.875 243.452 35.2604 243.119 35.5938C242.806 35.9062 242.431 36.0625 241.994 36.0625H234.056C233.848 36.0625 233.744 36.1667 233.744 36.375V38.2188Z" fill="#181818"/>
</svg>
